<?xml version="1.0" encoding="utf-8" ?>
<svg xmlns="http://www.w3.org/2000/svg" xmlns:xlink="http://www.w3.org/1999/xlink" width="778" height="555">
	<path fill="#E1E6FA" d="M199.082 4.525L393.859 4.55774L393.788 58.9118C393.787 68.6999 393.233 78.8526 393.927 88.5845C395.052 89.1554 396.357 88.9981 397.592 88.9894C398.891 88.9719 400.444 88.7836 401.697 89.1233C402.587 89.0653 404.126 89.1732 404.825 88.6105C405.293 78.734 404.913 68.7106 404.904 58.8187L404.905 4.52769C431.512 4.71761 458.16 4.8219 484.765 4.54955C484.76 13.0085 484.122 86.9508 485.021 88.7557C486.161 88.9883 487.221 89.022 488.382 89.0144C516.233 88.2677 544.879 88.9439 572.819 88.9445L614.163 88.9424C621.218 88.9422 628.404 88.653 635.446 88.9807C643.895 88.7222 652.397 88.9128 660.852 88.9156C664.103 86.6358 664.208 82.7953 668.817 81.8498C672.392 81.1166 684.224 79.4099 687.045 81.274C690.43 81.6456 695.243 84.579 697.38 87.2472C697.497 87.393 697.605 87.5456 697.712 87.6987C708.93 83.3671 707.286 71.3803 721.05 67.8845C724.107 67.108 731.434 65.9383 734.196 67.585C739.552 68.2949 746.112 74.2644 749.297 78.4288C756.344 87.6431 752.076 95.4693 754.46 105.297C757.327 117.12 765.073 124.547 763.112 137.909C760.306 157.017 740.512 163.443 739.501 175.953C738.915 183.208 746.889 188.7 746.741 192.563C754.048 191.828 760.838 193.371 767.078 197.28L767.349 197.953C770.684 199.183 773.908 205.785 775.409 209.028C776.186 210.705 777.627 213.507 777.457 215.392C778.4 217.407 778.503 224.723 777.71 226.739C777.655 226.88 777.591 227.018 777.532 227.157C776.53 231.795 773.773 235.566 773.368 240.439C772.842 246.767 773.973 253.019 774.101 259.334C774.316 269.999 769.735 279.827 760.684 285.673C753.344 290.415 737.831 292.987 735.657 302.622C734.398 308.205 737.083 314.047 737.711 319.574C739.301 333.563 725.849 349.238 714.682 356.536C703.906 363.579 688.831 358.686 676.829 358.969C676.482 363.732 674.642 390.143 673.271 392.391C679.615 396.949 687.122 415.382 689.859 422.659C691.04 425.802 691.91 429.777 693.471 432.654C694.168 435.327 697.113 443.081 696.916 445.265C699.473 453.033 701.098 461.897 702.373 469.981C703.703 469.113 706.721 466.657 706.997 465.077C707.01 465.001 707.003 464.923 707.005 464.846C709.089 466.142 725.337 481.898 726.027 483.942C725.102 485.929 710.549 500.383 708.415 501.485C709.341 505.908 711.782 515.969 709.541 519.902C708.796 521.21 707.573 522.002 706.124 522.341C702.325 523.23 697.349 521.521 693.481 520.915C684.061 519.441 672.99 519.1 664.696 513.784C663.099 512.76 662.024 511.667 661.629 509.775C662.004 508.681 662.42 508.278 663.512 507.791C669.478 505.132 676.787 506.34 683.057 501.675C684.726 500.432 685.703 498.81 685.964 496.737C685.975 496.646 685.983 496.555 685.993 496.463C686.134 496.123 686.17 496.097 686.204 495.67C686.707 489.296 673.727 450.919 669.113 446.649C669.568 447.553 669.926 448.4 670.015 449.422C670.873 459.273 670.096 469.67 670.099 479.579C670.101 485.347 670.928 493.475 669.961 499.003L669.079 499.493L668.436 499.477C657.81 499.86 647.078 499.573 636.437 499.572L587.233 499.538C587.941 501.449 587.35 504.087 587.579 506.21C588.217 512.123 589.596 518.34 589.546 524.28C589.534 525.62 589.296 527.095 588.72 528.312C588.106 529.609 587.016 530.583 585.643 531.011C580.099 532.739 564.206 525.538 559.157 526.82C559.19 526.897 559.226 526.973 559.256 527.052C560.04 529.083 560.275 543.329 559.361 545.567C545.001 545.255 530.584 545.502 516.218 545.501L436.797 545.529L436.835 514.793C436.841 509.834 437.336 504.316 436.63 499.426C419.655 499.757 402.629 499.501 385.65 499.501L291.697 499.497C291.954 514.301 291.716 529.142 291.781 543.951C273.339 543.619 254.856 543.859 236.41 543.857C213.858 543.855 191.29 543.678 168.74 543.969L168.734 499.491C164.51 499.528 160.278 499.451 156.054 499.43L156.065 499.127C149.022 498.771 141.866 498.618 134.831 499.126L134.83 499.469C132.792 499.283 130.731 499.265 128.685 499.2C126.823 499.16 124.258 498.783 122.487 499.279C119.448 498.924 116.026 499.213 112.946 499.213Q112.866 485.364 112.951 471.516C113.415 469.414 113.199 466.732 113.195 464.566C113.186 458.767 112.156 441.824 114.028 436.983Q112.268 419.97 110.154 402.997C109.233 395.462 108.562 387.772 106.835 380.376C106.508 376.938 106.336 372.607 105.345 369.327C102.743 342.172 99.4485 313.795 108.454 287.492C109.16 286.072 109.692 284.553 110.273 283.077C111.887 277.774 113.075 272.976 112.941 267.385L112.913 252.756C108.611 256.979 104.085 260.637 99.1746 264.129C96.8182 265.797 92.5695 268.121 89.6162 267.494C88.3381 267.222 87.3598 266.44 86.6543 265.356C83.6926 260.808 85.746 252.91 86.6393 247.946C88.3086 244.705 88.8129 240.056 90.1006 236.545C93.8127 226.423 99.226 212.726 104.295 203.357C103.817 202.952 103.325 202.544 102.898 202.085C100.499 199.508 103.457 192.919 104.535 189.945C106.895 183.431 110.508 177.143 112.212 170.426C113.973 163.486 113.098 155.143 113.016 147.996Q112.8 137.457 113.207 126.923C112.346 114.467 112.911 101.667 112.906 89.1762Q120.095 89.3027 127.282 89.1055C131.784 88.6612 136.525 88.929 141.056 88.9267L165.664 88.9267L185.399 88.9304C189.174 88.9274 193.199 88.6566 196.935 89.1973C197.629 89.0472 198.494 89.0778 198.879 88.4507C199.492 87.4539 199.086 12.4337 199.082 4.525ZM559.174 500.694C559.349 500.941 559.508 501.129 559.624 501.404C560.489 503.449 560.115 508.75 559.163 510.703C562.018 509.753 564.289 508.232 565.683 505.482C566.551 503.769 566.949 501.397 566.336 499.549L559.835 499.492L559.174 500.694Z"/>
	<path fill="#FDFCFE" d="M199.082 4.525L393.859 4.55774L393.788 58.9118C393.787 68.6999 393.233 78.8526 393.927 88.5845C395.052 89.1554 396.357 88.9981 397.592 88.9894C398.891 88.9719 400.444 88.7836 401.697 89.1233C402.587 89.0653 404.126 89.1732 404.825 88.6105C405.293 78.734 404.913 68.7106 404.904 58.8187L404.905 4.52769C431.512 4.71761 458.16 4.8219 484.765 4.54955C484.76 13.0085 484.122 86.9508 485.021 88.7557C486.161 88.9883 487.221 89.022 488.382 89.0144C516.233 88.2677 544.879 88.9439 572.819 88.9445L614.163 88.9424C621.218 88.9422 628.404 88.653 635.446 88.9807C643.813 89.3537 652.251 89.1818 660.628 89.2105C660.627 89.3627 660.63 89.5149 660.625 89.6669C660.571 91.1562 659.328 92.3952 659.312 93.9162C659.291 95.8154 661.003 96.6808 660.565 98.6507Q659.857 102.059 659.591 105.53Q659.325 109.001 659.507 112.478C659.618 114.666 661.015 121.245 660.484 122.668C655.78 122.696 650.337 122.203 645.726 123.098C644.233 121.988 641.832 120.934 640.029 120.477C639.929 122.623 636.912 124.552 636.228 126.68C635.416 129.204 637.014 132.387 636.181 134.484C630.14 132.857 624.117 134.214 618.118 132.187C618.099 132.132 608.69 119.546 608.157 119.007C598.757 120.774 583.091 123.463 573.888 123.499C571.442 121.906 494.097 122.738 484.404 122.738L271.723 122.732L202.28 122.728C189.975 122.728 177.438 122.245 165.157 122.866C164.807 120.675 164.366 118.521 163.883 116.356C163.213 113.087 162.183 109.872 161.028 106.746Q160.245 105.105 159.265 103.572Q158.285 102.04 157.124 100.64Q155.963 99.24 154.638 97.9939Q153.313 96.7479 151.845 95.6746C146.976 92.1005 140.521 91.3529 134.657 92.2583C132.078 92.384 129.732 93.0765 127.35 94.047L127.282 89.1055C131.784 88.6612 136.525 88.929 141.056 88.9267L165.664 88.9267L185.399 88.9304C189.174 88.9274 193.199 88.6566 196.935 89.1973C197.629 89.0472 198.494 89.0778 198.879 88.4507C199.492 87.4539 199.086 12.4337 199.082 4.525Z"/>
	<path fill="#E1E6FA" d="M199.082 4.525L393.859 4.55774L393.788 58.9118C393.787 68.6999 393.233 78.8526 393.927 88.5845C395.052 89.1554 396.357 88.9981 397.592 88.9894C394.299 90.1238 387.178 89.6458 383.507 89.6916C339.245 90.2442 294.906 89.7209 250.636 89.7135L215.715 89.7133C209.992 89.7098 202.421 90.3649 196.935 89.1973C197.629 89.0472 198.494 89.0778 198.879 88.4507C199.492 87.4539 199.086 12.4337 199.082 4.525Z"/>
	<path fill="#E1E6FA" d="M404.905 4.52769C431.512 4.71761 458.16 4.8219 484.765 4.54955C484.76 13.0085 484.122 86.9508 485.021 88.7557C486.161 88.9883 487.221 89.022 488.382 89.0144C484.57 90.2315 407.216 90.217 401.697 89.1233C402.587 89.0653 404.126 89.1732 404.825 88.6105C405.293 78.734 404.913 68.7106 404.904 58.8187L404.905 4.52769Z"/>
	<path fill="#F7A250" d="M608.157 119.007C616.059 115.111 629.16 116.505 637.414 119.276C638.329 119.583 639.29 119.832 640.029 120.477C639.929 122.623 636.912 124.552 636.228 126.68C635.416 129.204 637.014 132.387 636.181 134.484C630.14 132.857 624.117 134.214 618.118 132.187C618.099 132.132 608.69 119.546 608.157 119.007Z"/>
	<path fill="#BAC5F2" d="M161.028 106.746C162.533 105.676 163.859 104.924 165.795 105.232C167.239 105.462 168.476 106.344 169.274 107.552C170.123 108.837 170.528 110.467 170.223 111.992C169.942 113.403 169.117 114.58 167.907 115.349C166.607 116.175 165.382 116.324 163.883 116.356C163.213 113.087 162.183 109.872 161.028 106.746Z"/>
	<path fill="#BAC5F2" d="M180.893 105.211C181.733 105.167 182.658 105.159 183.485 105.306C184.87 105.552 186.309 106.666 187.059 107.829Q187.207 108.06 187.331 108.305Q187.455 108.55 187.553 108.806Q187.651 109.063 187.722 109.328Q187.793 109.593 187.836 109.864Q187.88 110.135 187.895 110.409Q187.911 110.683 187.898 110.957Q187.885 111.231 187.844 111.503Q187.803 111.774 187.735 112.04C187.185 114.169 185.766 115.258 183.958 116.268C183.013 116.321 181.946 116.39 181.023 116.152C179.589 115.783 178.189 114.673 177.458 113.394C176.731 112.121 176.615 110.639 177.032 109.243C177.658 107.147 179.094 106.198 180.893 105.211Z"/>
	<defs>
		<linearGradient id="gradient_0" gradientUnits="userSpaceOnUse" x1="730.73297" y1="211.52025" x2="599.38165" y2="210.93712">
			<stop offset="0" stop-color="#E4A3EC"/>
			<stop offset="1" stop-color="#8564F5"/>
		</linearGradient>
	</defs>
	<path fill="url(#gradient_0)" d="M697.712 87.6987C708.93 83.3671 707.286 71.3803 721.05 67.8845C724.107 67.108 731.434 65.9383 734.196 67.585C739.552 68.2949 746.112 74.2644 749.297 78.4288C756.344 87.6431 752.076 95.4693 754.46 105.297C757.327 117.12 765.073 124.547 763.112 137.909C760.306 157.017 740.512 163.443 739.501 175.953C738.915 183.208 746.889 188.7 746.741 192.563C754.048 191.828 760.838 193.371 767.078 197.28L767.349 197.953C770.684 199.183 773.908 205.785 775.409 209.028C776.186 210.705 777.627 213.507 777.457 215.392C778.4 217.407 778.503 224.723 777.71 226.739C777.655 226.88 777.591 227.018 777.532 227.157C776.53 231.795 773.773 235.566 773.368 240.439C772.842 246.767 773.973 253.019 774.101 259.334C774.316 269.999 769.735 279.827 760.684 285.673C753.344 290.415 737.831 292.987 735.657 302.622C734.398 308.205 737.083 314.047 737.711 319.574C739.301 333.563 725.849 349.238 714.682 356.536C703.906 363.579 688.831 358.686 676.829 358.969C677.502 355.333 677.688 351.468 678.126 347.786C679.172 339.002 680.19 330.112 681.75 321.405C682.494 317.254 686.227 305.693 686.055 302.799C685.989 302.472 685.848 302.313 685.659 302.044C681.195 301.33 676.424 301.574 671.899 301.301Q659.12 300.515 646.416 298.919Q632.855 297.251 619.43 294.708C613.265 293.499 607.032 291.736 600.808 290.976C601.68 289.332 602.781 285.157 602.391 283.365L602.125 283.172C600.965 283.289 600.07 283.284 598.936 282.999C598.454 283.365 598.091 283.65 597.503 283.813C597.533 283.766 597.556 283.714 597.592 283.671C599.027 281.973 600.074 279.239 600.436 277.022C600.098 273.418 599.736 269.576 599.97 265.963C600.174 262.803 602.39 255.752 601.501 253.283L600.119 253.352C602.115 251.601 603.805 248.933 605.445 246.833Q610.433 240.422 615.486 234.061C619.47 229.103 624.011 224.572 627.927 219.586C628.604 218.725 629.248 217.99 629.354 216.864C629.732 216.563 630.014 216.283 630.3 215.889C631.257 214.571 632.646 212.442 632.393 210.78C631.93 210.575 632.024 210.557 631.629 210.534C630.28 210.455 629.171 210.547 627.876 210.028C628.029 209.536 628.172 209.074 628.162 208.553C628.059 203.617 619.875 141.262 619.054 139.373C619.439 137.318 619.205 133.992 618.118 132.187C624.117 134.214 630.14 132.857 636.181 134.484C637.014 132.387 635.416 129.204 636.228 126.68C636.912 124.552 639.929 122.623 640.029 120.477C641.832 120.934 644.233 121.988 645.726 123.098C650.337 122.203 655.78 122.696 660.484 122.668C661.015 121.245 659.618 114.666 659.507 112.478Q659.325 109.001 659.591 105.53Q659.857 102.059 660.565 98.6507C661.003 96.6808 659.291 95.8154 659.312 93.9162C659.328 92.3952 660.571 91.1562 660.625 89.6669C660.63 89.5149 660.627 89.3627 660.628 89.2105C652.251 89.1818 643.813 89.3537 635.446 88.9807C643.895 88.7222 652.397 88.9128 660.852 88.9156C664.103 86.6358 664.208 82.7953 668.817 81.8498C672.392 81.1166 684.224 79.4099 687.045 81.274C690.43 81.6456 695.243 84.579 697.38 87.2472C697.497 87.393 697.605 87.5456 697.712 87.6987Z"/>
	<path fill="#E1E6FA" d="M746.741 192.563C754.048 191.828 760.838 193.371 767.078 197.28L767.349 197.953C770.684 199.183 773.908 205.785 775.409 209.028C776.186 210.705 777.627 213.507 777.457 215.392C778.4 217.407 778.503 224.723 777.71 226.739C777.655 226.88 777.591 227.018 777.532 227.157C776.53 231.795 773.773 235.566 773.368 240.439C772.842 246.767 773.973 253.019 774.101 259.334C774.316 269.999 769.735 279.827 760.684 285.673C753.344 290.415 737.831 292.987 735.657 302.622C734.398 308.205 737.083 314.047 737.711 319.574C739.301 333.563 725.849 349.238 714.682 356.536C703.906 363.579 688.831 358.686 676.829 358.969C677.502 355.333 677.688 351.468 678.126 347.786C679.172 339.002 680.19 330.112 681.75 321.405C682.494 317.254 686.227 305.693 686.055 302.799C688.59 300.96 694.336 284.419 695.572 280.656C697.149 277.939 698.184 274.496 699.35 271.562C703.387 261.404 706.695 251.029 710.327 240.727C712.678 234.059 714.981 227.35 717.532 220.756C719.542 215.561 721.823 210.449 723.708 205.209C724.164 203.941 724.729 202.677 724.669 201.311C733.742 202.356 734.625 199.011 741.567 194.687C743.127 193.715 745.048 193.275 746.741 192.563Z"/>
	<path fill="#FDFCFE" d="M746.741 192.563C754.048 191.828 760.838 193.371 767.078 197.28L767.349 197.953C765.464 202.153 761.958 206.3 759.318 210.115Q753.417 218.706 747.062 226.966Q740.707 235.226 733.915 243.131Q727.124 251.036 719.916 258.564Q712.708 266.091 705.104 273.219C703.245 274.99 698.541 280.136 696.418 280.766C696.096 280.861 695.879 280.741 695.572 280.656C697.149 277.939 698.184 274.496 699.35 271.562C703.387 261.404 706.695 251.029 710.327 240.727C712.678 234.059 714.981 227.35 717.532 220.756C719.542 215.561 721.823 210.449 723.708 205.209C724.164 203.941 724.729 202.677 724.669 201.311C733.742 202.356 734.625 199.011 741.567 194.687C743.127 193.715 745.048 193.275 746.741 192.563Z"/>
	<path fill="#FDFCFE" d="M749.009 247.108L750.11 247.358C750.232 247.86 750.153 248.186 749.964 248.656C745.848 258.883 695.268 312.968 685.425 317.128L684.797 316.636C685.679 308.534 729.528 264.199 737.516 256.693C740.849 253.56 746.205 250.232 749.009 247.108Z"/>
	<path fill="#BAC5F2" d="M697.712 87.6987C708.93 83.3671 707.286 71.3803 721.05 67.8845C724.107 67.108 731.434 65.9383 734.196 67.585C739.552 68.2949 746.112 74.2644 749.297 78.4288C756.344 87.6431 752.076 95.4693 754.46 105.297C757.327 117.12 765.073 124.547 763.112 137.909C760.306 157.017 740.512 163.443 739.501 175.953C738.915 183.208 746.889 188.7 746.741 192.563C745.048 193.275 743.127 193.715 741.567 194.687C734.625 199.011 733.742 202.356 724.669 201.311C728.528 195.896 732.274 176.117 731.794 169.331C731.386 163.557 729.52 152.552 724.811 148.755C720.071 144.931 714.291 146.392 708.764 146.894C707.198 147.63 704.069 148.368 702.405 147.771C702.469 146.634 702.136 146.098 701.555 145.14C701.18 142.775 699.39 138.144 698.285 136.012C698.714 133.624 698.02 127.668 697.285 125.38C697.922 124.811 698.555 124.231 699.128 123.597C704.235 117.936 705.54 111.169 705.17 103.757C704.846 97.2708 702.546 92.052 697.712 87.6987Z"/>
	<path fill="#E1E6FA" d="M697.712 87.6987C708.93 83.3671 707.286 71.3803 721.05 67.8845C724.107 67.108 731.434 65.9383 734.196 67.585C736.163 73.7226 714.119 136.595 709.736 145.285C709.448 145.855 709.156 146.389 708.764 146.894C707.198 147.63 704.069 148.368 702.405 147.771C702.469 146.634 702.136 146.098 701.555 145.14C701.18 142.775 699.39 138.144 698.285 136.012C698.714 133.624 698.02 127.668 697.285 125.38C697.922 124.811 698.555 124.231 699.128 123.597C704.235 117.936 705.54 111.169 705.17 103.757C704.846 97.2708 702.546 92.052 697.712 87.6987Z"/>
	<path fill="#BAC5F2" d="M698.285 136.012C698.933 135.683 699.305 135.404 699.698 134.79C702.811 129.935 705.143 124.499 708.141 119.543C709.265 117.684 712.648 113.459 713.186 111.843C713.29 111.531 713.292 111.376 713.338 111.032C715.054 117.435 705.507 138.47 702.401 144.535L701.555 145.14C701.18 142.775 699.39 138.144 698.285 136.012Z"/>
	<path fill="#FDFCFE" d="M618.118 132.187C624.117 134.214 630.14 132.857 636.181 134.484C637.284 135.056 637.936 135.257 638.636 136.349C642.045 137.443 645.711 140.447 648.578 142.594L648.855 143.18C649.38 146.471 649.682 162.916 648.829 165.671C648.648 167.89 646.022 172.517 645.164 175.008C643.083 181.053 636.113 207.783 632.819 210.466C632.683 210.577 632.535 210.675 632.393 210.78C631.93 210.575 632.024 210.557 631.629 210.534C630.28 210.455 629.171 210.547 627.876 210.028C628.029 209.536 628.172 209.074 628.162 208.553C628.059 203.617 619.875 141.262 619.054 139.373C619.439 137.318 619.205 133.992 618.118 132.187Z"/>
	<path fill="#E1E6FA" d="M618.118 132.187C624.117 134.214 630.14 132.857 636.181 134.484C637.284 135.056 637.936 135.257 638.636 136.349C634.975 139.187 624.19 135.111 619.837 137.479C619.401 137.717 619.178 138.918 619.054 139.373C619.439 137.318 619.205 133.992 618.118 132.187Z"/>
	<defs>
		<linearGradient id="gradient_1" gradientUnits="userSpaceOnUse" x1="678.54156" y1="101.74646" x2="704.05444" y2="112.97369">
			<stop offset="0" stop-color="#54A3DD"/>
			<stop offset="1" stop-color="#4D54C3"/>
		</linearGradient>
	</defs>
	<path fill="url(#gradient_1)" d="M660.852 88.9156C664.103 86.6358 664.208 82.7953 668.817 81.8498C672.392 81.1166 684.224 79.4099 687.045 81.274C690.43 81.6456 695.243 84.579 697.38 87.2472C697.497 87.393 697.605 87.5456 697.712 87.6987C702.546 92.052 704.846 97.2708 705.17 103.757C705.54 111.169 704.235 117.936 699.128 123.597C698.555 124.231 697.922 124.811 697.285 125.38C697.216 125.336 697.152 125.283 697.078 125.249C693.537 123.601 687.36 128.352 684.079 129.534C683.983 129.569 683.885 129.601 683.789 129.634C683.073 127.509 678.885 123.942 677.549 121.559C675.964 118.735 676.39 114.997 674.202 112.449C674.035 111.586 673.843 111.269 673.272 110.601C672.249 110.68 672.128 111.021 671.413 111.722C670.069 111.401 666.682 104.478 665.397 102.948C664.028 101.318 662.277 99.9095 660.565 98.6507C661.003 96.6808 659.291 95.8154 659.312 93.9162C659.328 92.3952 660.571 91.1562 660.625 89.6669C660.63 89.5149 660.627 89.3627 660.628 89.2105C652.251 89.1818 643.813 89.3537 635.446 88.9807C643.895 88.7222 652.397 88.9128 660.852 88.9156Z"/>
	<defs>
		<linearGradient id="gradient_2" gradientUnits="userSpaceOnUse" x1="681.03076" y1="96.696701" x2="661.91028" y2="88.435745">
			<stop offset="0" stop-color="#54A4DE"/>
			<stop offset="1" stop-color="#5BD7EF"/>
		</linearGradient>
	</defs>
	<path fill="url(#gradient_2)" d="M660.852 88.9156C664.103 86.6358 664.208 82.7953 668.817 81.8498C672.392 81.1166 684.224 79.4099 687.045 81.274C687.594 86.1863 675.764 105.13 674.835 111.755L674.202 112.449C674.035 111.586 673.843 111.269 673.272 110.601C672.249 110.68 672.128 111.021 671.413 111.722C670.069 111.401 666.682 104.478 665.397 102.948C664.028 101.318 662.277 99.9095 660.565 98.6507C661.003 96.6808 659.291 95.8154 659.312 93.9162C659.328 92.3952 660.571 91.1562 660.625 89.6669C660.63 89.5149 660.627 89.3627 660.628 89.2105C652.251 89.1818 643.813 89.3537 635.446 88.9807C643.895 88.7222 652.397 88.9128 660.852 88.9156Z"/>
	<defs>
		<linearGradient id="gradient_3" gradientUnits="userSpaceOnUse" x1="669.00244" y1="238.47627" x2="606.30829" y2="237.87134">
			<stop offset="0" stop-color="#AB7CDE"/>
			<stop offset="1" stop-color="#7F5FE3"/>
		</linearGradient>
	</defs>
	<path fill="url(#gradient_3)" d="M606.197 276.992C606.26 276.952 606.324 276.913 606.385 276.87C608.89 275.136 610.968 271.301 613.106 268.967C627.833 252.891 643.526 238.349 654.806 219.409Q657.933 214.164 660.553 208.648C662.413 204.727 663.991 198.638 666.951 195.478C667.646 194.737 668.25 194.392 669.253 194.306C670.107 195.107 670.2 195.827 670.251 196.983C670.805 209.627 656.491 246.621 647.745 255.794C641.232 262.626 629.886 266.65 622.027 272.681C618.787 275.168 612.572 281.271 608.769 282.275C607.854 282.108 607.777 282.178 607.219 281.396C606.946 281.013 606.807 280.638 606.646 280.201L606.522 280.28C605.994 279.151 606.328 278.414 606.176 277.267L606.197 276.992Z"/>
	<defs>
		<linearGradient id="gradient_4" gradientUnits="userSpaceOnUse" x1="658.32715" y1="125.26366" x2="703.27319" y2="129.31546">
			<stop offset="0" stop-color="#F9C648"/>
			<stop offset="1" stop-color="#F97A5B"/>
		</linearGradient>
	</defs>
	<path fill="url(#gradient_4)" d="M660.484 122.668C661.015 121.245 659.618 114.666 659.507 112.478Q659.325 109.001 659.591 105.53Q659.857 102.059 660.565 98.6507C662.277 99.9095 664.028 101.318 665.397 102.948C666.682 104.478 670.069 111.401 671.413 111.722C672.128 111.021 672.249 110.68 673.272 110.601C673.843 111.269 674.035 111.586 674.202 112.449C676.39 114.997 675.964 118.735 677.549 121.559C678.885 123.942 683.073 127.509 683.789 129.634C683.885 129.601 683.983 129.569 684.079 129.534C687.36 128.352 693.537 123.601 697.078 125.249C697.152 125.283 697.216 125.336 697.285 125.38C698.02 127.668 698.714 133.624 698.285 136.012C699.39 138.144 701.18 142.775 701.555 145.14C702.136 146.098 702.469 146.634 702.405 147.771C702.343 147.999 702.15 148.216 702.017 148.41Q689.401 151.32 676.635 153.476C677.616 151.639 677.692 147.831 677.176 145.868C677.405 145.243 677.497 144.613 677.579 143.957C677.785 142.307 677.805 140.746 676.73 139.371C675.067 139.444 665.128 133.59 662.805 132.496C663.316 131.266 663.16 129.735 663.535 128.401C663.369 126.84 661.553 123.826 660.484 122.668Z"/>
	<path fill="#F7A250" d="M676.388 138.218C678.254 135.95 683.004 135.318 684.341 132.52C685.014 135.351 682.766 139.342 681.308 141.677C680.14 143.546 679.276 145.098 677.176 145.868C677.405 145.243 677.497 144.613 677.579 143.957C677.785 142.307 677.805 140.746 676.73 139.371L676.388 138.218Z"/>
	<path fill="#FDFCFE" d="M663.535 128.401C666.158 130.16 668.223 132.805 670.882 134.444C672.511 135.449 675.16 136.021 676.359 137.48L676.388 138.218L676.73 139.371C675.067 139.444 665.128 133.59 662.805 132.496C663.316 131.266 663.16 129.735 663.535 128.401Z"/>
	<path fill="#E1E6FA" d="M648.855 143.18C650.736 143.706 662.718 151.48 663.479 152.828C663.527 152.912 663.55 153.008 663.586 153.098C663.235 154.433 663.02 155.854 663.74 157.093L664.263 157.3C661.571 159.086 657.84 159.274 654.97 160.788C652.698 161.986 651.108 164.722 648.829 165.671C649.682 162.916 649.38 146.471 648.855 143.18Z"/>
	<path fill="#E1E6FA" d="M645.726 123.098C650.337 122.203 655.78 122.696 660.484 122.668C661.553 123.826 663.369 126.84 663.535 128.401C663.16 129.735 663.316 131.266 662.805 132.496C660.986 130.639 648.746 124.611 645.726 123.098Z"/>
	<path fill="#BAC5F2" d="M598.936 282.999C600.781 281.739 604.241 277.353 606.197 276.992L606.176 277.267C605.047 279.085 603.987 282.058 602.391 283.365L602.125 283.172C600.965 283.289 600.07 283.284 598.936 282.999Z"/>
	<path fill="#FDFCFE" d="M663.586 153.098C665.438 153.75 666.959 154.798 668.124 156.39C666.859 156.93 665.61 157.102 664.263 157.3L663.74 157.093C663.02 155.854 663.235 154.433 663.586 153.098Z"/>
	<path fill="#4845BC" d="M600.808 290.976C607.032 291.736 613.265 293.499 619.43 294.708Q632.855 297.251 646.416 298.919Q659.12 300.515 671.899 301.301C676.424 301.574 681.195 301.33 685.659 302.044C685.848 302.313 685.989 302.472 686.055 302.799C686.227 305.693 682.494 317.254 681.75 321.405C680.19 330.112 679.172 339.002 678.126 347.786C677.688 351.468 677.502 355.333 676.829 358.969C676.482 363.732 674.642 390.143 673.271 392.391C679.615 396.949 687.122 415.382 689.859 422.659C691.04 425.802 691.91 429.777 693.471 432.654C694.168 435.327 697.113 443.081 696.916 445.265C699.473 453.033 701.098 461.897 702.373 469.981C703.703 469.113 706.721 466.657 706.997 465.077C707.01 465.001 707.003 464.923 707.005 464.846C709.089 466.142 725.337 481.898 726.027 483.942C725.102 485.929 710.549 500.383 708.415 501.485C709.341 505.908 711.782 515.969 709.541 519.902C708.796 521.21 707.573 522.002 706.124 522.341C702.325 523.23 697.349 521.521 693.481 520.915C684.061 519.441 672.99 519.1 664.696 513.784C663.099 512.76 662.024 511.667 661.629 509.775C662.004 508.681 662.42 508.278 663.512 507.791C669.478 505.132 676.787 506.34 683.057 501.675C684.726 500.432 685.703 498.81 685.964 496.737C685.975 496.646 685.983 496.555 685.993 496.463C686.134 496.123 686.17 496.097 686.204 495.67C686.707 489.296 673.727 450.919 669.113 446.649C669.568 447.553 669.926 448.4 670.015 449.422C670.873 459.273 670.096 469.67 670.099 479.579C670.101 485.347 670.928 493.475 669.961 499.003L669.079 499.493L668.436 499.477C657.81 499.86 647.078 499.573 636.437 499.572L587.233 499.538C587.941 501.449 587.35 504.087 587.579 506.21C588.217 512.123 589.596 518.34 589.546 524.28C589.534 525.62 589.296 527.095 588.72 528.312C588.106 529.609 587.016 530.583 585.643 531.011C580.099 532.739 564.206 525.538 559.157 526.82C559.099 526.651 559.086 526.46 558.984 526.313C558.877 526.161 545.068 521.794 542.18 518.71C541.304 517.775 540.979 516.942 540.991 515.673C542.544 512.308 554.731 512.564 558.703 510.679C558.785 510.64 558.864 510.598 558.945 510.557C559.019 510.438 559.099 510.323 559.167 510.2C560.172 508.413 559.666 502.683 559.174 500.694C559.349 500.941 559.508 501.129 559.624 501.404C560.489 503.449 560.115 508.75 559.163 510.703C562.018 509.753 564.289 508.232 565.683 505.482C566.551 503.769 566.949 501.397 566.336 499.549L559.835 499.492L559.827 499.188L566.667 499.329C566.684 499.302 566.705 499.278 566.719 499.25C567.458 497.811 567.238 496.423 566.742 494.944C566.921 494.715 567.138 494.478 567.258 494.21C567.867 492.851 569.915 465.986 569.767 463.441C569.736 462.914 569.594 462.441 569.398 461.957C569.714 461.54 569.705 461.597 569.919 461.154C571.046 458.826 574.901 388.658 573.789 385.52C573.851 385.41 573.917 385.301 573.976 385.189C574.785 383.651 575.447 378.041 574.888 376.401C574.995 376.234 575.14 376.024 575.228 375.838C576.188 373.816 577.214 368.978 576.588 366.896C576.795 366.674 577.028 366.44 577.179 366.175C577.384 365.818 584.397 340.08 584.574 338.825C584.634 338.396 584.554 338.085 584.464 337.668C584.61 337.501 584.89 337.201 585.021 336.993C586.576 334.527 591.253 318.604 592.869 314.368C593.79 311.956 596.707 306.603 596.294 304.221C596.707 303.916 597.038 303.595 597.325 303.164C598.501 301.394 600.004 297.196 599.617 295.105C599.831 294.866 600.043 294.623 600.221 294.356C600.889 293.353 600.987 292.134 600.808 290.976Z"/>
	<path fill="#FDFCFE" d="M641.57 373.817C642.843 375.256 643.412 382.7 643.248 384.819C643.212 385.285 643.08 385.59 642.904 386.016C643.777 387.138 650.865 406.091 650.79 406.77C650.775 406.906 650.75 407.041 650.73 407.177C650.695 413.336 651.234 457.325 650.091 459.33L613.211 459.341C606.722 459.347 600.018 459.734 593.564 459.199C595.66 455.331 599.581 419.302 600.199 411.945C600.605 407.108 600.481 402.1 601.209 397.305C601.803 393.389 604.152 389.767 604.66 385.858C606.352 384.002 608.683 378.171 609.213 375.665C609.344 375.764 609.469 375.871 609.606 375.962C610.939 376.848 637.892 376.75 641.715 376.209C642.076 375.426 641.731 374.651 641.57 373.817Z"/>
	<path fill="#E1E6FA" d="M641.57 373.817C642.843 375.256 643.412 382.7 643.248 384.819C643.212 385.285 643.08 385.59 642.904 386.016C639.09 385.462 634.586 385.906 630.709 385.917Q617.684 386.044 604.66 385.858C606.352 384.002 608.683 378.171 609.213 375.665C609.344 375.764 609.469 375.871 609.606 375.962C610.939 376.848 637.892 376.75 641.715 376.209C642.076 375.426 641.731 374.651 641.57 373.817Z"/>
	<path fill="#E1E6FA" d="M650.73 407.177C652.663 408.491 663.749 431.681 664.686 435.167C664.781 435.518 664.715 435.81 664.657 436.158L664.115 436.029C662.412 439.725 663.335 447.374 663.366 451.519C663.404 456.572 664.199 490.378 662.765 493.016L614.238 493.031C605.759 493.029 596.833 493.553 588.412 492.762C588.474 492.676 588.545 492.595 588.599 492.503C589.501 490.963 594.026 461.725 593.564 459.199C600.018 459.734 606.722 459.347 613.211 459.341L650.091 459.33C651.234 457.325 650.695 413.336 650.73 407.177Z"/>
	<path fill="#FDFCFE" d="M622.562 349.87C623.772 348.58 636.104 326.587 636.23 325.114C636.387 325.382 636.549 325.67 636.657 325.962C637.507 328.272 638.616 337.974 637.761 339.975C639.168 341.481 639.854 351.16 639.72 353.659C639.691 354.192 639.463 354.647 639.244 355.123L639.809 355.875L639.604 357.063C640.16 357.823 640.516 358.145 640.335 359.16C640.278 359.484 640.11 359.824 639.984 360.122C641.092 361.39 641.22 363.952 641.15 365.594C641.127 366.122 641.022 366.498 640.817 366.977C641.805 368.092 641.835 369.526 641.741 370.963C641.709 371.447 641.67 371.84 641.453 372.28L641.57 373.817C641.731 374.651 642.076 375.426 641.715 376.209C637.892 376.75 610.939 376.848 609.606 375.962C609.469 375.871 609.344 375.764 609.213 375.665C610.994 373.685 617.875 359.97 618.135 357.52C619.792 356.07 621.86 351.983 622.562 349.87Z"/>
	<path fill="#BAC5F2" d="M622.562 349.87C624.094 351.919 623.702 366.247 623.365 369.236C623.32 369.642 623.211 369.955 623.078 370.338C624.595 370.634 626.085 370.783 627.31 371.806L613.438 371.906C615.189 371.424 617.294 371.067 618.719 369.918C619.575 367.903 619.782 360.16 619.062 358.177C618.91 357.759 618.51 357.704 618.135 357.52C619.792 356.07 621.86 351.983 622.562 349.87Z"/>
	<path fill="#BAC5F2" d="M641.453 372.28C641.396 372.217 641.355 372.135 641.282 372.093C639.098 370.829 637.789 370.184 635.981 368.272C635.034 367.27 634.317 366.227 634.423 364.783C634.643 361.797 637.57 358.959 639.604 357.063C640.16 357.823 640.516 358.145 640.335 359.16C640.278 359.484 640.11 359.824 639.984 360.122C641.092 361.39 641.22 363.952 641.15 365.594C641.127 366.122 641.022 366.498 640.817 366.977C641.805 368.092 641.835 369.526 641.741 370.963C641.709 371.447 641.67 371.84 641.453 372.28Z"/>
	<path fill="#FDFCFE" d="M639.984 360.122C641.092 361.39 641.22 363.952 641.15 365.594C641.127 366.122 641.022 366.498 640.817 366.977C641.073 367.727 641.36 368.32 641.112 369.116L640.51 369.053C639.635 368.134 639.161 367.161 638.868 365.923C638.364 363.786 638.9 361.951 639.984 360.122Z"/>
	<path fill="#BAC5F2" d="M637.761 339.975C639.168 341.481 639.854 351.16 639.72 353.659C639.691 354.192 639.463 354.647 639.244 355.123C637.636 353.723 635.835 351.849 635.291 349.722C634.624 347.118 636.292 344.937 637.492 342.804C638.224 341.503 638.128 341.376 637.761 339.975Z"/>
	<path fill="#FDFCFE" d="M662.765 493.016C664.199 490.378 663.404 456.572 663.366 451.519C663.335 447.374 662.412 439.725 664.115 436.029L664.657 436.158C666.886 438.081 669.409 444.459 669.637 447.303C670.001 451.846 670.126 497.559 669.639 498.693C669.511 498.992 669.266 499.226 669.079 499.493L668.436 499.477C664.13 498.589 650.208 499.251 645.045 499.254L587.199 499.218C587.273 499.121 587.351 499.026 587.422 498.926C588.497 497.413 588.766 494.548 588.412 492.762C596.833 493.553 605.759 493.029 614.238 493.031L662.765 493.016Z"/>
	<path fill="#E1E6FA" d="M707.005 464.846C709.089 466.142 725.337 481.898 726.027 483.942C725.102 485.929 710.549 500.383 708.415 501.485C706.685 497.919 706.173 489.905 705.478 485.783Q704.103 477.847 702.373 469.981C703.703 469.113 706.721 466.657 706.997 465.077C707.01 465.001 707.003 464.923 707.005 464.846Z"/>
	<path fill="#BAC5F2" d="M573.888 123.499C583.091 123.463 598.757 120.774 608.157 119.007C608.69 119.546 618.099 132.132 618.118 132.187C619.205 133.992 619.439 137.318 619.054 139.373C619.875 141.262 628.059 203.617 628.162 208.553C628.172 209.074 628.029 209.536 627.876 210.028C629.171 210.547 630.28 210.455 631.629 210.534C632.024 210.557 631.93 210.575 632.393 210.78C632.646 212.442 631.257 214.571 630.3 215.889C630.014 216.283 629.732 216.563 629.354 216.864C629.248 217.99 628.604 218.725 627.927 219.586C624.011 224.572 619.47 229.103 615.486 234.061Q610.433 240.422 605.445 246.833C603.805 248.933 602.115 251.601 600.119 253.352L601.501 253.283C602.39 255.752 600.174 262.803 599.97 265.963C599.736 269.576 600.098 273.418 600.436 277.022C600.074 279.239 599.027 281.973 597.592 283.671C597.556 283.714 597.533 283.766 597.503 283.813C597.028 285.216 595.47 286.497 594.169 287.132C593.334 287.54 592.731 287.67 591.813 287.61C591.323 287.577 590.834 287.556 590.345 287.515C590.034 289.548 587.816 291.452 586.232 292.628C585.358 293.276 584.369 293.969 583.366 294.386C579.784 296.479 574.562 297.211 570.556 296.067C569.482 295.76 568.434 295.222 567.434 294.729C567.187 294.874 567.137 294.923 566.817 294.996C563.485 295.756 548.138 294.993 543.696 294.938C538.413 294.871 533.118 295.084 527.839 294.979C527.359 294.969 527.116 294.899 526.713 294.645L527.413 294.056C519.59 294.874 511.671 297.266 503.788 297.05C502.581 296.308 501.338 295.598 500.202 294.749C498.144 292.106 497.667 289.346 497.185 286.104L492.626 285.611C490.768 284.414 489.363 282.953 488.268 281.038C485.41 276.037 485.027 269.318 486.613 263.846C487.74 259.957 489.783 257.128 493.349 255.207C491.803 244.01 490.492 232.763 489.13 221.542C488.529 217.568 488.447 213.306 487.559 209.41L485.971 196.152C483.232 196.2 478.978 196.829 476.472 195.891L476.195 195.23C476.797 190.973 481.642 185.377 484.056 181.849C483.145 173.609 478.921 150.183 480.208 143.615C480.786 140.668 482.649 139.074 485.018 137.519C487.745 137.485 491.9 136.252 494.773 135.824C502.688 134.647 571.462 125.201 573.888 123.499Z"/>
	<path fill="#7E60F5" d="M600.119 253.352L601.501 253.283C602.39 255.752 600.174 262.803 599.97 265.963C599.736 269.576 600.098 273.418 600.436 277.022C600.074 279.239 599.027 281.973 597.592 283.671C597.556 283.714 597.533 283.766 597.503 283.813C597.028 285.216 595.47 286.497 594.169 287.132C593.334 287.54 592.731 287.67 591.813 287.61C591.323 287.577 590.834 287.556 590.345 287.515C589.622 286.14 588.274 285.048 587.403 283.695C585.906 281.368 584.747 278.171 582.896 276.212C585.587 273.374 598.436 256.736 600.119 253.352Z"/>
	<defs>
		<linearGradient id="gradient_5" gradientUnits="userSpaceOnUse" x1="566.46594" y1="287.32495" x2="589.03864" y2="285.35675">
			<stop offset="0" stop-color="#FAC14A"/>
			<stop offset="1" stop-color="#F88359"/>
		</linearGradient>
	</defs>
	<path fill="url(#gradient_5)" d="M568.978 287.988C570.1 287.172 570.894 285.875 571.763 284.803C575.065 280.732 578.047 278.289 582.896 276.212C584.747 278.171 585.906 281.368 587.403 283.695C588.274 285.048 589.622 286.14 590.345 287.515C590.034 289.548 587.816 291.452 586.232 292.628C585.358 293.276 584.369 293.969 583.366 294.386C579.784 296.479 574.562 297.211 570.556 296.067C569.482 295.76 568.434 295.222 567.434 294.729C567.518 293.123 566.01 291.868 566.116 290.036C566.787 289.128 567.637 289.034 568.674 288.68L568.978 287.988Z"/>
	<path fill="#FDFCFE" d="M568.978 287.988L568.674 288.68C567.637 289.034 566.787 289.128 566.116 290.036C566.01 291.868 567.518 293.123 567.434 294.729C567.187 294.874 567.137 294.923 566.817 294.996C563.485 295.756 548.138 294.993 543.696 294.938C538.413 294.871 533.118 295.084 527.839 294.979C527.359 294.969 527.116 294.899 526.713 294.645L527.413 294.056C541.266 292.171 555.176 290.212 568.978 287.988Z"/>
	<path fill="#E1E6FA" d="M627.876 210.028C629.171 210.547 630.28 210.455 631.629 210.534C632.024 210.557 631.93 210.575 632.393 210.78C632.646 212.442 631.257 214.571 630.3 215.889C630.014 216.283 629.732 216.563 629.354 216.864C628.472 214.698 629.197 212.122 627.876 210.028Z"/>
	<path fill="#FDFCFE" d="M493.233 257.455C494.14 258.555 496.698 280.848 496.771 283.666C496.121 284.396 495.414 284.32 494.47 284.49C492.695 282.889 491.889 281.167 491.285 278.899C489.605 272.594 489.9 263.185 493.233 257.455Z"/>
	<path fill="#FDFCFE" d="M484.145 185.252C485.241 186.436 485.237 191.196 485.417 192.935L480.118 192.916L479.586 192.825L479.342 192.34C480.654 189.819 482.476 187.546 484.145 185.252Z"/>
	<defs>
		<linearGradient id="gradient_6" gradientUnits="userSpaceOnUse" x1="122.34518" y1="391.72049" x2="179.49683" y2="391.854">
			<stop offset="0" stop-color="#4E62C7"/>
			<stop offset="1" stop-color="#55B4E2"/>
		</linearGradient>
	</defs>
	<path fill="url(#gradient_6)" d="M108.454 287.492C109.16 286.072 109.692 284.553 110.273 283.077C112.534 284.646 125.325 283.85 128.774 283.876L129.04 283.828Q144.646 283.943 160.252 283.819C165.912 283.79 171.763 283.459 177.406 283.834Q178.777 294.868 180.312 305.88L180.833 309.486L181.979 317.509Q186.863 351.877 193.879 385.874C194.587 390.379 195.095 394.356 194.664 398.937C191.392 430.277 191.107 461.736 188.483 493.125L188.253 496.953L188.052 499.892L184.87 499.846Q178.58 500.056 172.287 500.012L171.885 497.515L171.57 499.199C170.096 499.783 158.848 498.976 156.065 499.127C149.022 498.771 141.866 498.618 134.831 499.126L134.83 499.469C132.792 499.283 130.731 499.265 128.685 499.2C126.823 499.16 124.258 498.783 122.487 499.279C119.448 498.924 116.026 499.213 112.946 499.213Q112.866 485.364 112.951 471.516C113.415 469.414 113.199 466.732 113.195 464.566C113.186 458.767 112.156 441.824 114.028 436.983Q112.268 419.97 110.154 402.997C109.233 395.462 108.562 387.772 106.835 380.376C106.508 376.938 106.336 372.607 105.345 369.327C102.743 342.172 99.4485 313.795 108.454 287.492Z"/>
	<path fill="#E1E6FA" d="M143.012 335.748C145.47 341.243 147.094 347.349 148.987 353.073C152.865 364.796 156.562 374.828 162.452 385.718C163.727 387.992 166.072 391.255 166.031 393.904C166.707 397.822 166.538 402.063 166.672 406.035Q167.012 416.179 167.512 426.316C168.618 448.711 170.119 471.159 171.676 493.528L171.885 497.515L171.57 499.199C170.096 499.783 158.848 498.976 156.065 499.127C149.022 498.771 141.866 498.618 134.831 499.126C134.469 497.129 134.853 494.935 135.045 492.924C135.655 488.527 135.861 483.961 136.23 479.535C137.43 465.164 137.961 450.879 138.546 436.478L141.77 366.659C142.226 356.45 141.92 345.878 143.012 335.748Z"/>
	<path fill="#FDFCFE" d="M135.045 492.924C138.999 492.634 170.006 492.567 171.378 493.204L171.676 493.528L171.885 497.515L171.57 499.199C170.096 499.783 158.848 498.976 156.065 499.127C149.022 498.771 141.866 498.618 134.831 499.126C134.469 497.129 134.853 494.935 135.045 492.924Z"/>
	<path fill="#FDFCFE" d="M162.452 385.718C163.727 387.992 166.072 391.255 166.031 393.904C165.817 396.005 165.986 398.207 166.031 400.32C161.859 400.403 154.605 401.386 151.029 398.819C149.404 397.653 148.441 395.901 148.216 393.923Q148.177 393.561 148.177 393.198Q148.176 392.834 148.214 392.472Q148.251 392.11 148.326 391.754Q148.4 391.398 148.512 391.052Q148.623 390.706 148.77 390.373Q148.917 390.04 149.098 389.725Q149.279 389.409 149.492 389.114Q149.705 388.819 149.947 388.548C152.925 385.264 158.414 385.845 162.452 385.718Z"/>
	<defs>
		<linearGradient id="gradient_7" gradientUnits="userSpaceOnUse" x1="102.99175" y1="391.20236" x2="131.04782" y2="391.32858">
			<stop offset="0" stop-color="#4642B1"/>
			<stop offset="1" stop-color="#4B66BD"/>
		</linearGradient>
	</defs>
	<path fill="url(#gradient_7)" d="M108.454 287.492C109.16 286.072 109.692 284.553 110.273 283.077C112.534 284.646 125.325 283.85 128.774 283.876C129.705 288.135 131.515 292.34 132.049 296.645C133.997 312.372 124.777 313.899 123.948 324.789C123.359 332.526 124.686 340.286 125.414 347.969C125.957 353.696 126.079 359.545 125.972 365.293C125.886 369.893 125.692 374.518 125.104 379.085C123.965 387.937 122.075 396.475 121.987 405.455C121.835 420.952 126.123 435.46 128.165 450.664C129.79 462.768 128.851 474.892 128.583 487.049C128.495 491.065 128.973 495.214 128.685 499.2C126.823 499.16 124.258 498.783 122.487 499.279C119.448 498.924 116.026 499.213 112.946 499.213Q112.866 485.364 112.951 471.516C113.415 469.414 113.199 466.732 113.195 464.566C113.186 458.767 112.156 441.824 114.028 436.983Q112.268 419.97 110.154 402.997C109.233 395.462 108.562 387.772 106.835 380.376C106.508 376.938 106.336 372.607 105.345 369.327C102.743 342.172 99.4485 313.795 108.454 287.492Z"/>
	<path fill="#BAC5F2" d="M114.028 436.983C115.15 444.283 115.945 451.632 117.088 458.925C117.807 463.513 118.869 468.042 119.6 472.628C120.998 481.391 121.882 490.428 122.487 499.279C119.448 498.924 116.026 499.213 112.946 499.213Q112.866 485.364 112.951 471.516C113.415 469.414 113.199 466.732 113.195 464.566C113.186 458.767 112.156 441.824 114.028 436.983Z"/>
	<path fill="#55BAE3" d="M184.87 499.846C182.588 498.973 180.237 499.923 178.047 499.166C178.097 496.334 179.206 493.624 179.134 490.773C178.534 466.898 179.329 442.907 179.335 419.025L179.904 334.018C179.967 327.89 179.376 321.743 179.519 315.642C179.58 313.014 178.949 311.294 180.833 309.486L181.979 317.509Q186.863 351.877 193.879 385.874C194.587 390.379 195.095 394.356 194.664 398.937C191.392 430.277 191.107 461.736 188.483 493.125L188.253 496.953L188.052 499.892L184.87 499.846Z"/>
	<defs>
		<linearGradient id="gradient_8" gradientUnits="userSpaceOnUse" x1="85.738106" y1="231.58377" x2="177.05371" y2="231.2386">
			<stop offset="0" stop-color="#E5A3ED"/>
			<stop offset="1" stop-color="#8F6AF3"/>
		</linearGradient>
	</defs>
	<path fill="url(#gradient_8)" d="M112.906 89.1762Q120.095 89.3027 127.282 89.1055L127.35 94.047C129.732 93.0765 132.078 92.384 134.657 92.2583C140.521 91.3529 146.976 92.1005 151.845 95.6746Q153.313 96.7479 154.638 97.9939Q155.963 99.24 157.124 100.64Q158.285 102.04 159.265 103.572Q160.245 105.105 161.028 106.746C162.183 109.872 163.213 113.087 163.883 116.356C164.366 118.521 164.807 120.675 165.157 122.866C165.532 126.987 166.056 130.981 166.956 135.023C168.917 143.825 175.753 166.924 182.468 172.654C182.484 172.799 182.497 172.945 182.518 173.09C182.872 175.566 185.782 179.069 186.9 181.482C190.128 188.449 190.993 198.452 188.675 205.807C187.351 210.01 185.11 213.838 182.889 217.618C181.3 219.504 179.578 221.362 178.182 223.395C178.362 226.917 177.593 230.85 177.216 234.377C175.963 245.395 176.01 256.247 176.568 267.3C176.844 272.767 177.515 278.37 177.406 283.834C171.763 283.459 165.912 283.79 160.252 283.819Q144.646 283.943 129.04 283.828L128.774 283.876C125.325 283.85 112.534 284.646 110.273 283.077C111.887 277.774 113.075 272.976 112.941 267.385L112.913 252.756C108.611 256.979 104.085 260.637 99.1746 264.129C96.8182 265.797 92.5695 268.121 89.6162 267.494C88.3381 267.222 87.3598 266.44 86.6543 265.356C83.6926 260.808 85.746 252.91 86.6393 247.946C88.3086 244.705 88.8129 240.056 90.1006 236.545C93.8127 226.423 99.226 212.726 104.295 203.357C103.817 202.952 103.325 202.544 102.898 202.085C100.499 199.508 103.457 192.919 104.535 189.945C106.895 183.431 110.508 177.143 112.212 170.426C113.973 163.486 113.098 155.143 113.016 147.996Q112.8 137.457 113.207 126.923C112.346 114.467 112.911 101.667 112.906 89.1762Z"/>
	<defs>
		<linearGradient id="gradient_9" gradientUnits="userSpaceOnUse" x1="136.86934" y1="156.56146" x2="189.78856" y2="157.74919">
			<stop offset="0" stop-color="#507DD0"/>
			<stop offset="1" stop-color="#57C7E9"/>
		</linearGradient>
	</defs>
	<path fill="url(#gradient_9)" d="M112.906 89.1762Q120.095 89.3027 127.282 89.1055L127.35 94.047C129.732 93.0765 132.078 92.384 134.657 92.2583C140.521 91.3529 146.976 92.1005 151.845 95.6746Q153.313 96.7479 154.638 97.9939Q155.963 99.24 157.124 100.64Q158.285 102.04 159.265 103.572Q160.245 105.105 161.028 106.746C162.183 109.872 163.213 113.087 163.883 116.356C164.366 118.521 164.807 120.675 165.157 122.866C165.532 126.987 166.056 130.981 166.956 135.023C168.917 143.825 175.753 166.924 182.468 172.654C182.484 172.799 182.497 172.945 182.518 173.09C182.872 175.566 185.782 179.069 186.9 181.482C190.128 188.449 190.993 198.452 188.675 205.807C187.351 210.01 185.11 213.838 182.889 217.618C181.3 219.504 179.578 221.362 178.182 223.395C177.925 223.134 177.488 222.8 177.299 222.501C176.015 220.463 177.889 206.337 177.798 202.948C177.752 201.233 177.534 199.135 176.554 197.679C174.265 194.281 160.622 182.448 156.838 178.885C149.14 181.216 141.636 180.783 133.957 178.749C132.234 181.429 130.513 184.157 128.39 186.543C125.009 190.341 111.152 202.372 106.536 203.289C105.79 203.437 105.046 203.418 104.295 203.357C103.817 202.952 103.325 202.544 102.898 202.085C100.499 199.508 103.457 192.919 104.535 189.945C106.895 183.431 110.508 177.143 112.212 170.426C113.973 163.486 113.098 155.143 113.016 147.996Q112.8 137.457 113.207 126.923C112.346 114.467 112.911 101.667 112.906 89.1762Z"/>
	<defs>
		<linearGradient id="gradient_10" gradientUnits="userSpaceOnUse" x1="102.09551" y1="147.74564" x2="139.42767" y2="147.4091">
			<stop offset="0" stop-color="#4C48C0"/>
			<stop offset="1" stop-color="#517CCF"/>
		</linearGradient>
	</defs>
	<path fill="url(#gradient_10)" d="M112.906 89.1762Q120.095 89.3027 127.282 89.1055L127.35 94.047C129.732 93.0765 132.078 92.384 134.657 92.2583C135.914 92.382 137.775 92.3221 138.848 92.9904C138.786 93.3764 138.698 93.6665 138.582 94.0334C138.213 95.1968 138.854 102.635 139.462 103.677L140.336 104.242L140.321 104.774C134.663 109.257 125.031 115.267 124.065 123.049C123.032 131.372 130.202 140.876 132.519 148.823C134.25 154.756 134.797 160.784 135.07 166.934C135.248 170.929 135.648 175.016 133.957 178.749C132.234 181.429 130.513 184.157 128.39 186.543C125.009 190.341 111.152 202.372 106.536 203.289C105.79 203.437 105.046 203.418 104.295 203.357C103.817 202.952 103.325 202.544 102.898 202.085C100.499 199.508 103.457 192.919 104.535 189.945C106.895 183.431 110.508 177.143 112.212 170.426C113.973 163.486 113.098 155.143 113.016 147.996Q112.8 137.457 113.207 126.923C112.346 114.467 112.911 101.667 112.906 89.1762Z"/>
	<path fill="#BAC5F2" d="M112.906 89.1762Q120.095 89.3027 127.282 89.1055L127.35 94.047C121.475 97.6495 118.396 101.816 116.745 108.545C115.799 112.399 114.895 124.621 113.207 126.923C112.346 114.467 112.911 101.667 112.906 89.1762Z"/>
	<defs>
		<linearGradient id="gradient_11" gradientUnits="userSpaceOnUse" x1="157.11932" y1="143.02811" x2="124.36121" y2="142.6479">
			<stop offset="0" stop-color="#F9BC4B"/>
			<stop offset="1" stop-color="#F98E55"/>
		</linearGradient>
	</defs>
	<path fill="url(#gradient_11)" d="M133.957 178.749C135.648 175.016 135.248 170.929 135.07 166.934C134.797 160.784 134.25 154.756 132.519 148.823C130.202 140.876 123.032 131.372 124.065 123.049C125.031 115.267 134.663 109.257 140.321 104.774C140.712 106.68 141.184 108.66 142.241 110.321C147.843 119.133 160.546 119.757 157.782 133.992C156.513 140.525 152.768 146.235 150.716 152.523C149.896 155.861 149.299 159.063 149.112 162.508C149.618 169.507 152.212 173.805 156.838 178.885C149.14 181.216 141.636 180.783 133.957 178.749Z"/>
	<path fill="#F7A250" d="M144.186 153.546C146.374 153.371 148.555 152.906 150.716 152.523C149.896 155.861 149.299 159.063 149.112 162.508C148.862 161.715 148.984 160.924 148.727 160.171C147.969 157.952 145.61 155.44 144.186 153.546Z"/>
	<path fill="#B180DE" d="M127.223 237.988C127.343 238.045 127.456 238.121 127.583 238.158C129.103 238.601 133.087 236.322 134.634 235.66C137.812 244.568 141.91 256.007 137.529 265.111C134.502 271.4 127.342 276.019 129.04 283.828L128.774 283.876C125.325 283.85 112.534 284.646 110.273 283.077C111.887 277.774 113.075 272.976 112.941 267.385L113.233 267.251C113.629 262.405 113.283 257.288 113.272 252.413C114.939 250.638 117.644 247.189 119.815 246.243L120.263 246.831C120.935 245.085 121.372 243.775 122.42 242.146C123.523 240.431 125.153 238.433 127.223 237.988Z"/>
	<path fill="#BAC5F2" d="M113.272 252.413C114.939 250.638 117.644 247.189 119.815 246.243L120.263 246.831C119.626 250.571 115.899 268.536 113.413 270.327L113.233 267.251C113.629 262.405 113.283 257.288 113.272 252.413Z"/>
	<path fill="#FDFCFE" d="M116.85 211.69C118.658 210.046 121.025 208.738 123.144 207.542C124.712 206.657 126.693 205.76 128.514 206.386C131.833 207.529 134.068 214.343 135.511 217.449C130.042 218.401 125.401 219.498 120.643 222.525C119.682 218.811 117.611 215.546 116.85 211.69Z"/>
	<path fill="#F7A250" d="M120.643 222.525C125.401 219.498 130.042 218.401 135.511 217.449C136.725 220.306 138.077 223.156 138.836 226.174C134.334 228.579 129.725 231.297 125.648 234.375C124 230.897 121.195 226.31 120.643 222.525Z"/>
	<path fill="#FDFCFE" d="M125.648 234.375C129.725 231.297 134.334 228.579 138.836 226.174C139.378 228.387 140.336 230.43 140.974 232.604C138.885 233.681 136.814 234.773 134.634 235.66C133.087 236.322 129.103 238.601 127.583 238.158C127.456 238.121 127.343 238.045 127.223 237.988C126.866 236.674 126.283 235.567 125.648 234.375Z"/>
	<path fill="#BAC5F2" d="M188.052 499.892L188.253 496.953L188.63 499.066C193.103 499.936 201.366 499.232 206.185 499.217L245.344 499.197L375.387 499.058L415.674 499.066C422.619 499.068 429.741 498.759 436.67 499.126L436.63 499.426C419.655 499.757 402.629 499.501 385.65 499.501L291.697 499.497C291.954 514.301 291.716 529.142 291.781 543.951C273.339 543.619 254.856 543.859 236.41 543.857C213.858 543.855 191.29 543.678 168.74 543.969L168.734 499.491C164.51 499.528 160.278 499.451 156.054 499.43L156.065 499.127C158.848 498.976 170.096 499.783 171.57 499.199L171.885 497.515L172.287 500.012Q178.58 500.056 184.87 499.846L188.052 499.892Z"/>
	<path fill="#4845BC" d="M184.87 499.846L188.052 499.892C189.566 503.246 191.25 506.053 194.198 508.344C197.773 511.121 214.226 515.992 212.91 520.962C211.682 521.979 210.28 522.277 208.737 522.505C202.788 523.384 183.524 523.003 177.1 522.426C175.628 522.294 173.888 521.946 172.903 520.743C170.653 517.996 172.716 504.363 172.287 500.012Q178.58 500.056 184.87 499.846Z"/>
	<path fill="#E1E6FA" d="M436.67 499.126C461.983 498.277 487.443 498.831 512.777 498.823L541.303 498.821C547.441 498.822 553.718 498.591 559.827 499.188L559.835 499.492L559.174 500.694C559.666 502.683 560.172 508.413 559.167 510.2C559.099 510.323 559.019 510.438 558.945 510.557C558.864 510.598 558.785 510.64 558.703 510.679C554.731 512.564 542.544 512.308 540.991 515.673C540.979 516.942 541.304 517.775 542.18 518.71C545.068 521.794 558.877 526.161 558.984 526.313C559.086 526.46 559.099 526.651 559.157 526.82C559.19 526.897 559.226 526.973 559.256 527.052C560.04 529.083 560.275 543.329 559.361 545.567C545.001 545.255 530.584 545.502 516.218 545.501L436.797 545.529L436.835 514.793C436.841 509.834 437.336 504.316 436.63 499.426L436.67 499.126Z"/>
	<path fill="#FDFCFE" d="M510.176 303.068L553.532 303.072C560.615 303.073 568.171 303.647 575.185 302.911C576.266 305.76 575.604 311.01 575.599 314.13C575.588 322.128 574.67 360.175 576.401 365.146C576.653 365.869 576.759 366.146 576.588 366.896C577.214 368.978 576.188 373.816 575.228 375.838C575.14 376.024 574.995 376.234 574.888 376.401C569.891 377.036 561.002 376.427 555.443 376.425L510.196 376.435L510.176 303.068Z"/>
	<path fill="#BAC5F2" d="M511.74 385.944L549.24 385.946C555.938 385.949 563.026 385.497 569.668 386.197L570.005 386.236L570.179 385.579C570.896 385.711 571.62 385.773 572.344 385.852L572.675 386.129C573.156 385.997 573.406 385.837 573.789 385.52C574.901 388.658 571.046 458.826 569.919 461.154C569.705 461.597 569.714 461.54 569.398 461.957C569.632 460.908 569.909 460.481 569.441 459.49C564.075 458.593 556.957 459.291 551.385 459.293L511.74 459.31C512.079 434.874 511.753 410.385 511.74 385.944Z"/>
	<path fill="#FDFCFE" d="M523.319 397.141C528.7 397.1 548.13 395.988 551.633 398.446C552.525 399.072 553.226 400.414 553.371 401.477C553.51 402.503 553.199 403.463 552.592 404.284C551.306 406.023 550.021 406.403 548.008 406.727C543.282 406.853 523.538 407.602 520.333 405.714C519.298 405.105 518.572 404.204 518.348 403.01C518.119 401.793 518.475 399.876 519.225 398.881C520.154 397.646 521.9 397.387 523.319 397.141Z"/>
	<path fill="#FDFCFE" d="M438.361 221.627C455.197 222.166 472.281 221.685 489.13 221.542C490.492 232.763 491.803 244.01 493.349 255.207C489.783 257.128 487.74 259.957 486.613 263.846C485.027 269.318 485.41 276.037 488.268 281.038C489.363 282.953 490.768 284.414 492.626 285.611L497.185 286.104C497.667 289.346 498.144 292.106 500.202 294.749C498.425 295.646 445.058 295.062 438.393 295.061L438.361 221.627Z"/>
	<path fill="#BAC5F2" d="M474.545 254.85L475.13 254.964C476.036 256.231 475.566 280.656 475.668 284.263L480.763 285.738L468.651 285.864L467.818 285.609C468.401 284.811 470.233 284.512 471.206 284.197C471.683 280.062 472.152 261.955 470.842 258.954C469.153 258.659 467.468 258.981 465.781 259.187C468.666 257.651 471.584 256.232 474.545 254.85Z"/>
	<path fill="#BAC5F2" d="M472.983 231.398C474.087 231.289 475.276 231.125 476.37 231.37C478.042 231.745 479.661 232.842 480.563 234.305C481.5 235.824 481.694 237.577 481.209 239.287C480.58 241.507 479.077 242.669 477.199 243.782C476.219 243.865 475.148 244.004 474.17 243.875C472.54 243.659 470.824 242.552 469.865 241.237C468.889 239.899 468.587 238.234 468.87 236.617C469.325 234.027 470.929 232.753 472.983 231.398Z"/>
	<path fill="#BAC5F2" d="M450.674 231.411C451.689 231.298 452.861 231.158 453.874 231.33C455.508 231.608 457.132 232.711 458.066 234.065C459.041 235.479 459.32 237.151 458.969 238.82C458.475 241.163 456.923 242.483 455.017 243.7C453.922 243.842 452.763 244.029 451.665 243.839C449.98 243.548 448.369 242.526 447.422 241.1C446.442 239.624 446.195 237.794 446.633 236.089C447.242 233.721 448.718 232.618 450.674 231.411Z"/>
	<path fill="#FDFCFE" d="M438.358 137.098C444.312 137.098 482.69 136.358 485.018 137.519C482.649 139.074 480.786 140.668 480.208 143.615C478.921 150.183 483.145 173.609 484.056 181.849C481.642 185.377 476.797 190.973 476.195 195.23L476.472 195.891C478.978 196.829 483.232 196.2 485.971 196.152L487.559 209.41L487.372 210.034C487.135 210.185 486.926 210.394 486.661 210.487C485.584 210.865 442.865 210.5 438.376 210.506L438.358 137.098Z"/>
	<path fill="#BAC5F2" d="M450.987 145.151C451.712 145.1 452.483 145.021 453.209 145.077C455.023 145.218 456.789 146.244 457.879 147.691Q458.075 147.949 458.242 148.227Q458.409 148.504 458.545 148.798Q458.682 149.092 458.787 149.398Q458.891 149.705 458.963 150.021Q459.034 150.337 459.071 150.658Q459.108 150.98 459.111 151.304Q459.114 151.628 459.082 151.95Q459.051 152.273 458.985 152.59C458.498 155.051 456.868 156.403 454.862 157.648C453.709 157.724 452.429 157.873 451.298 157.601C449.655 157.207 448.05 156.054 447.198 154.592C446.31 153.067 446.178 151.376 446.687 149.697C447.399 147.345 448.972 146.282 450.987 145.151Z"/>
	<path fill="#FDFCFE" d="M188.483 493.125C191.806 492.391 196.16 492.906 199.593 492.923L220.25 492.941L312.383 493.017L484.378 492.944L538.285 492.95C547.656 492.946 557.296 492.44 566.634 493.075L567 493.454L566.742 494.944C567.238 496.423 567.458 497.811 566.719 499.25C566.705 499.278 566.684 499.302 566.667 499.329L559.827 499.188C553.718 498.591 547.441 498.822 541.303 498.821L512.777 498.823C487.443 498.831 461.983 498.277 436.67 499.126C429.741 498.759 422.619 499.068 415.674 499.066L375.387 499.058L245.344 499.197L206.185 499.217C201.366 499.232 193.103 499.936 188.63 499.066L188.253 496.953L188.483 493.125Z"/>
	<path fill="#7E60F5" d="M182.468 172.654C189.976 177.317 193.813 182.85 195.791 191.399C197.361 198.185 197.951 205.173 198.562 212.096C198.79 214.668 198.715 217.774 199.283 220.263C199.468 224.881 199.743 229.514 199.821 234.134Q200.437 256.152 200.532 278.178C200.583 285.454 200.155 293.06 200.766 300.297C198.029 301.835 195.689 302.648 192.589 303.107L192.115 302.83L191.683 302.867C188.031 303.16 184.112 302.53 180.544 303.187L180.312 305.88Q178.777 294.868 177.406 283.834C177.515 278.37 176.844 272.767 176.568 267.3C176.01 256.247 175.963 245.395 177.216 234.377C177.593 230.85 178.362 226.917 178.182 223.395C179.578 221.362 181.3 219.504 182.889 217.618C185.11 213.838 187.351 210.01 188.675 205.807C190.993 198.452 190.128 188.449 186.9 181.482C185.782 179.069 182.872 175.566 182.518 173.09C182.497 172.945 182.484 172.799 182.468 172.654Z"/>
	<path fill="#E1E6FA" d="M177.406 283.834C177.515 278.37 176.844 272.767 176.568 267.3C176.01 256.247 175.963 245.395 177.216 234.377L184.302 234.381C184.811 243.895 184.753 253.499 185.442 262.985C186.08 271.767 187.533 280.626 188.981 289.311C189.714 293.709 190.229 298.77 192.115 302.83L191.683 302.867C188.031 303.16 184.112 302.53 180.544 303.187L180.312 305.88Q178.777 294.868 177.406 283.834Z"/>
	<path fill="#FDFCFE" d="M178.182 223.395C179.578 221.362 181.3 219.504 182.889 217.618Q183.718 225.989 184.302 234.381L177.216 234.377C177.593 230.85 178.362 226.917 178.182 223.395Z"/>
	<path fill="#FDFCFE" d="M192.115 302.83L192.589 303.107Q195.289 306.599 198.359 309.77Q201.43 312.941 204.834 315.751C198.126 318.794 189.217 317.085 181.979 317.509L180.833 309.486L180.312 305.88L180.544 303.187C184.112 302.53 188.031 303.16 191.683 302.867L192.115 302.83Z"/>
	<path fill="#FDFCFE" d="M582.929 303.071C586.925 302.994 592.59 302.213 596.417 303.255L596.294 304.221C596.707 306.603 593.79 311.956 592.869 314.368C591.253 318.604 586.576 334.527 585.021 336.993C584.89 337.201 584.61 337.501 584.464 337.668C581.706 336.089 585.427 307.581 582.929 303.071Z"/>
	<path fill="#FDFCFE" d="M193.879 385.874C197.715 385.828 201.995 385.504 204.962 388.443C206.36 389.828 207.175 391.696 207.08 393.68Q207.062 393.997 207.013 394.311Q206.964 394.624 206.884 394.932Q206.803 395.239 206.693 395.536Q206.582 395.834 206.442 396.119Q206.302 396.404 206.135 396.674Q205.967 396.943 205.773 397.195Q205.579 397.446 205.361 397.677Q205.143 397.908 204.903 398.116C202.276 400.412 198.878 400.428 195.591 400.4C194.896 399.85 194.898 399.798 194.664 398.937C195.095 394.356 194.587 390.379 193.879 385.874Z"/>
	<path fill="#F7A250" d="M200.766 300.297C204.777 303.682 209.434 307.168 210.062 312.821C210.177 313.858 210.121 315.243 209.433 316.09C209.097 316.505 208.701 316.741 208.163 316.791C206.923 316.907 205.858 316.369 204.834 315.751Q201.43 312.941 198.359 309.77Q195.289 306.599 192.589 303.107C195.689 302.648 198.029 301.835 200.766 300.297Z"/>
	<path fill="#FDFCFE" d="M598.936 282.999C600.07 283.284 600.965 283.289 602.125 283.172L602.391 283.365C602.781 285.157 601.68 289.332 600.808 290.976C600.987 292.134 600.889 293.353 600.221 294.356C600.043 294.623 599.831 294.866 599.617 295.105C596.802 295.499 585.538 295.579 583.366 294.386C584.369 293.969 585.358 293.276 586.232 292.628C587.816 291.452 590.034 289.548 590.345 287.515C590.834 287.556 591.323 287.577 591.813 287.61C592.731 287.67 593.334 287.54 594.169 287.132C595.47 286.497 597.028 285.216 597.503 283.813C598.091 283.65 598.454 283.365 598.936 282.999Z"/>
	<path fill="#FDFCFE" d="M199.283 220.263C200.352 219.805 201.932 220.217 202.976 220.689C204.745 221.488 205.973 223.445 206.501 225.261C207.041 227.121 206.929 229.317 205.954 231.021C205.105 232.507 203.531 233.532 201.884 233.927C201.232 234.084 200.493 234.16 199.821 234.134C199.743 229.514 199.468 224.881 199.283 220.263Z"/>
	<path fill="#FDFCFE" d="M365.033 303.069L430.408 303.05L430.411 337.677C428.727 337.652 427.115 337.639 425.444 337.894C429.176 338.309 432.99 337.925 436.74 337.944L434.869 341.897L430.337 341.848C430.395 343.599 430.781 346.186 430.134 347.797C432.926 349.907 435.554 352.358 436.097 356.013C436.556 359.095 435.16 362.199 433.265 364.567C432.349 365.711 430.958 366.46 430.089 367.519C430.957 369.908 430.444 373.868 430.444 376.443C408.702 375.912 386.779 376.427 365.021 376.43L365.033 303.069Z"/>
	<path fill="#BAC5F2" d="M425.444 337.894C429.176 338.309 432.99 337.925 436.74 337.944L434.869 341.897L430.337 341.848C430.395 343.599 430.781 346.186 430.134 347.797C432.926 349.907 435.554 352.358 436.097 356.013C436.556 359.095 435.16 362.199 433.265 364.567C432.349 365.711 430.958 366.46 430.089 367.519C427.478 368.76 424.176 369.238 421.313 368.704C420.028 368.465 419.556 368.058 418.835 367.067C418.803 366.038 418.767 365.818 419.278 364.88C421.76 363.878 424.522 366.444 427.035 366.524C428.378 366.567 429.43 365.921 430.38 365.044C430.46 364.97 430.538 364.893 430.617 364.818C430.291 361.762 430.041 357.435 430.727 354.438C430.516 354.133 430.301 353.833 430.062 353.55C427.596 350.637 423.363 350.034 419.797 349.736Q422.576 343.794 425.444 337.894Z"/>
	<path fill="#FDFCFE" d="M425.73 341.949C427.247 341.834 428.813 341.879 430.337 341.848C430.395 343.599 430.781 346.186 430.134 347.797C428.064 346.922 426.025 346.234 423.858 345.642C424.579 344.474 425.134 343.185 425.73 341.949Z"/>
	<path fill="#E1E6FA" d="M430.727 354.438C432.136 356.261 433.012 358.227 432.727 360.604C432.528 362.269 431.81 363.657 430.617 364.818C430.291 361.762 430.041 357.435 430.727 354.438Z"/>
	<path fill="#BAC5F2" d="M407.474 337.69C408.69 339.376 407.929 363.125 408.154 367.335C409.981 367.79 411.781 368.316 413.586 368.855L400.31 368.893C400.419 367.494 402.78 368.025 403.484 366.848C404.579 365.013 404.132 345.477 403.359 342.251C402.488 341.429 400.921 341.877 399.693 341.758C400.689 340.304 405.659 338.506 407.474 337.69Z"/>
	<path fill="#FDFCFE" d="M500.399 302.959C501.549 303.01 502.724 302.897 503.874 302.839C503.408 327.33 503.804 351.915 503.842 376.415L442.089 376.447L438.379 376.46L438.363 303.063L500.399 302.959Z"/>
	<path fill="#BAC5F2" d="M473.014 311.162C474.022 311.059 475.13 310.925 476.135 311.099C477.798 311.385 479.429 312.367 480.396 313.757C481.385 315.179 481.663 316.913 481.299 318.594C480.77 321.04 479.191 322.328 477.183 323.57C476.077 323.664 474.84 323.834 473.75 323.576C472.117 323.19 470.506 322.079 469.623 320.648C468.752 319.234 468.577 317.533 468.971 315.936C469.556 313.566 471.088 312.414 473.014 311.162Z"/>
	<path fill="#BAC5F2" d="M450.941 311.115C451.836 311.047 452.792 310.945 453.684 311.075C455.32 311.313 456.974 312.318 457.951 313.648C459.004 315.082 459.317 316.872 458.933 318.598C458.389 321.044 456.81 322.347 454.798 323.595C453.714 323.667 452.45 323.802 451.379 323.573C449.622 323.199 447.907 321.794 447.08 320.222Q446.937 319.953 446.822 319.672Q446.707 319.39 446.621 319.098Q446.535 318.806 446.479 318.508Q446.423 318.208 446.397 317.905Q446.372 317.602 446.377 317.298Q446.382 316.994 446.418 316.692Q446.454 316.39 446.52 316.093Q446.586 315.796 446.682 315.507C447.429 313.248 448.959 312.176 450.941 311.115Z"/>
	<path fill="#FDFCFE" d="M284.891 303.031C285.517 303.664 285.282 368.889 285.281 376.385L220.398 376.442L220.3 376.293L220.336 375.975L219.655 376.101C220.448 373.9 219.82 312.043 219.899 303.076C241.547 302.783 263.24 302.944 284.891 303.031Z"/>
	<path fill="#FDFCFE" d="M223.282 221.651Q254.279 221.778 285.274 221.516L285.267 272.386C285.257 279.113 285.678 286.095 285.392 292.79C285.355 293.669 285.317 294.224 284.764 294.923L283.488 295.032L219.867 295.069L219.831 247.667C219.817 239.328 219.147 230.422 219.998 222.142C220.87 221.492 222.233 221.667 223.282 221.651Z"/>
	<path fill="#BAC5F2" d="M230.909 226.489C236.463 226.343 255.423 225.528 259.583 227.061C261.011 227.587 261.872 228.928 262.43 230.274C262.903 231.414 263.117 232.508 262.609 233.675C261.783 235.572 260.435 236.671 258.55 237.416C253.063 237.734 233.828 238.528 229.642 236.716C228.286 236.13 227.024 235.149 226.513 233.717C226.027 232.357 226.301 230.681 226.955 229.421C227.803 227.787 229.251 227.083 230.909 226.489Z"/>
	<path fill="#BAC5F2" d="M263.684 254.918C269.273 254.871 274.866 254.931 280.455 254.946C279.229 258.729 271.365 284.754 269.725 285.893C268.833 285.997 268.336 286.049 267.499 285.623L276.184 258.72Q270.896 258.704 265.609 258.757C263.624 259.924 262.104 261.492 260.487 263.103L263.684 254.918Z"/>
	<path fill="#BAC5F2" d="M228.978 247.335C232.649 247.131 236.829 246.746 240.47 247.16C242.03 247.337 243.892 247.759 244.847 249.127C245.407 249.931 245.478 250.914 245.288 251.852C244.981 253.366 244.063 254.124 242.839 254.953C239.089 255.444 234.225 255.718 230.49 255.09C229.137 254.862 227.519 254.335 226.756 253.099C226.242 252.268 226.203 251.081 226.434 250.154C226.783 248.753 227.834 248.079 228.978 247.335Z"/>
	<path fill="#FDFCFE" d="M358.175 303.012L358.271 303.063C359.211 304.753 358.656 367.578 358.66 376.434L293.741 376.443C293.302 375.985 293.32 375.549 293.276 374.921C292.732 367.224 293.242 359.093 293.24 351.362L293.226 303.049L358.175 303.012Z"/>
	<path fill="#BAC5F2" d="M219.863 137.036C241.635 137.457 263.506 137.07 285.285 137.015L285.259 210.472L219.886 210.48L219.863 137.036Z"/>
	<path fill="#FDFCFE" d="M254.919 145.134C256.104 145.089 257.375 145.013 258.514 145.395C260.158 145.946 261.596 147.169 262.354 148.733Q262.49 149.018 262.597 149.315Q262.703 149.612 262.778 149.919Q262.853 150.226 262.897 150.539Q262.94 150.851 262.951 151.167Q262.962 151.482 262.94 151.797Q262.918 152.112 262.864 152.424Q262.811 152.735 262.725 153.039Q262.639 153.342 262.523 153.636C261.637 155.815 260.084 156.833 258.057 157.768C257.056 157.778 255.939 157.842 254.962 157.606C253.227 157.186 251.597 155.797 250.798 154.221Q250.653 153.938 250.539 153.641Q250.425 153.344 250.342 153.037Q250.259 152.729 250.209 152.415Q250.159 152.101 250.142 151.783Q250.124 151.466 250.14 151.148Q250.156 150.83 250.206 150.516Q250.255 150.201 250.336 149.894Q250.418 149.586 250.531 149.289C251.341 147.122 252.935 146.062 254.919 145.134Z"/>
	<path fill="#FDFCFE" d="M232.416 145.148C233.415 145.102 234.504 145.012 235.49 145.21C237.168 145.547 238.787 146.71 239.689 148.155Q239.858 148.426 239.998 148.714Q240.138 149.001 240.247 149.302Q240.356 149.602 240.432 149.913Q240.509 150.223 240.553 150.54Q240.596 150.856 240.606 151.176Q240.616 151.495 240.593 151.814Q240.569 152.133 240.512 152.448Q240.455 152.762 240.365 153.069C239.67 155.452 238.042 156.6 235.988 157.713C234.966 157.783 233.778 157.884 232.771 157.648C231.178 157.276 229.647 156.121 228.776 154.752C227.834 153.269 227.608 151.464 228.077 149.779C228.736 147.413 230.399 146.26 232.416 145.148Z"/>
	<path fill="#BAC5F2" d="M293.187 137.022C314.957 137.607 336.921 137.109 358.707 137.003C358.235 161.473 358.639 186.029 358.659 210.508L293.223 210.484L293.187 137.022Z"/>
	<path fill="#FDFCFE" d="M341.685 172.948C344.642 172.774 347.433 172.699 349.879 174.695C351.639 176.131 352.845 178.081 352.968 180.39C353.363 187.816 344.862 195.22 340.117 200.222C343.814 200.243 347.494 200.242 351.188 200.073L355.125 196.831Q353.923 200.412 352.656 203.971L343.26 203.963L333.91 203.891C338.913 198.117 348.242 191.445 348.643 183.15C348.739 181.172 348.061 179.42 346.654 178.024C345.711 177.089 344.651 176.431 343.283 176.481C340.137 176.596 337.747 179.735 335.782 181.874C335.32 181.104 335.128 180.76 335.391 179.857C336.27 176.836 338.95 174.268 341.685 172.948Z"/>
	<path fill="#FDFCFE" d="M326.682 145.132C327.666 145.097 328.732 145.02 329.699 145.229C331.39 145.595 332.905 146.704 333.829 148.156Q333.997 148.424 334.135 148.709Q334.274 148.993 334.383 149.291Q334.491 149.588 334.569 149.895Q334.646 150.202 334.691 150.515Q334.736 150.828 334.748 151.144Q334.761 151.461 334.74 151.776Q334.719 152.092 334.666 152.404Q334.613 152.716 334.528 153.021C333.843 155.414 332.243 156.569 330.186 157.688C329.118 157.798 327.84 157.886 326.794 157.621C325.035 157.173 323.43 155.824 322.61 154.218Q322.465 153.931 322.351 153.631Q322.237 153.33 322.155 153.02Q322.073 152.709 322.024 152.391Q321.974 152.074 321.958 151.753Q321.942 151.432 321.959 151.111Q321.977 150.79 322.027 150.473Q322.078 150.156 322.161 149.845Q322.244 149.535 322.359 149.235C323.161 147.136 324.76 146.062 326.682 145.132Z"/>
	<path fill="#FDFCFE" d="M304.206 145.139C305.191 145.101 306.279 145.009 307.25 145.196C308.915 145.518 310.575 146.745 311.481 148.155Q311.652 148.426 311.793 148.713Q311.934 149 312.044 149.301Q312.153 149.602 312.23 149.912Q312.308 150.223 312.351 150.54Q312.395 150.857 312.404 151.177Q312.414 151.497 312.39 151.816Q312.365 152.135 312.307 152.45Q312.248 152.764 312.157 153.071C311.472 155.397 309.793 156.641 307.767 157.723C306.854 157.775 305.866 157.869 304.959 157.731C303.203 157.463 301.427 156.174 300.501 154.682Q300.333 154.407 300.195 154.116Q300.057 153.825 299.95 153.521Q299.844 153.216 299.77 152.903Q299.696 152.589 299.655 152.27Q299.614 151.95 299.607 151.628Q299.6 151.306 299.627 150.984Q299.654 150.663 299.715 150.347Q299.775 150.03 299.869 149.722C300.563 147.387 302.215 146.269 304.206 145.139Z"/>
	<path fill="#BAC5F2" d="M365.009 137.032C386.774 137.483 408.669 137.047 430.445 137.04L430.428 210.496C408.647 210.251 386.832 210.475 365.048 210.475L365.009 137.032Z"/>
	<path fill="#FDFCFE" d="M376.058 145.142C377.043 145.099 378.114 145.012 379.083 145.219C380.779 145.581 382.333 146.712 383.268 148.161C384.193 149.596 384.427 151.435 383.95 153.069C383.271 155.397 381.598 156.641 379.567 157.713C378.694 157.763 377.703 157.849 376.831 157.726C375.028 157.47 373.322 156.275 372.34 154.761Q372.17 154.494 372.028 154.211Q371.887 153.928 371.775 153.632Q371.663 153.336 371.583 153.029Q371.502 152.723 371.453 152.411Q371.404 152.098 371.388 151.782Q371.371 151.466 371.388 151.15Q371.404 150.834 371.452 150.521Q371.501 150.208 371.581 149.902C372.257 147.401 373.919 146.277 376.058 145.142Z"/>
	<path fill="#FDFCFE" d="M398.452 145.127C399.648 145.084 400.928 145.004 402.079 145.393C403.729 145.951 405.18 147.177 405.94 148.749Q406.075 149.033 406.18 149.33Q406.285 149.627 406.359 149.932Q406.433 150.238 406.475 150.55Q406.517 150.862 406.527 151.176Q406.537 151.491 406.515 151.805Q406.492 152.119 406.438 152.429Q406.383 152.739 406.297 153.041Q406.211 153.344 406.094 153.636C405.199 155.846 403.613 156.849 401.563 157.798C400.593 157.808 399.511 157.87 398.565 157.633C396.966 157.233 395.457 155.995 394.611 154.603Q394.446 154.328 394.311 154.038Q394.176 153.748 394.072 153.445Q393.968 153.142 393.896 152.829Q393.825 152.517 393.787 152.199Q393.748 151.881 393.744 151.561Q393.739 151.24 393.768 150.921Q393.797 150.602 393.86 150.288Q393.922 149.974 394.017 149.668C394.709 147.376 396.423 146.146 398.452 145.127Z"/>
	<path fill="#FDFCFE" d="M298.591 221.658C318.597 221.674 338.66 221.966 358.659 221.534L358.626 295.053L352.816 295.037L293.242 295.062L293.242 221.751L298.591 221.658Z"/>
	<path fill="#BAC5F2" d="M304.937 226.513C310.216 226.25 328.857 225.548 332.914 227.026C334.251 227.513 335.56 228.384 336.092 229.761C336.535 230.91 336.243 232.247 335.721 233.319C335.012 234.775 334.008 235.32 332.545 235.874C327.02 236.081 309.785 236.768 305.37 235.561C303.881 235.154 302.256 234.395 301.522 232.952C301.04 232.002 301.135 230.795 301.468 229.81C302.064 228.044 303.404 227.333 304.937 226.513Z"/>
	<path fill="#BAC5F2" d="M305.855 242.434C306.816 242.386 307.85 242.304 308.799 242.499C310.501 242.849 312.135 243.933 313.043 245.422C313.965 246.934 314.106 248.761 313.616 250.444C312.909 252.871 311.327 253.987 309.224 255.099C308.264 255.177 307.332 255.23 306.383 255.018C304.689 254.641 303.074 253.627 302.163 252.129C301.205 250.555 301.083 248.702 301.59 246.953C302.266 244.625 303.872 243.55 305.855 242.434Z"/>
	<path fill="#FDFCFE" d="M366.651 385.979L432.02 385.937L431.992 459.293L366.605 459.397L366.651 385.979Z"/>
	<path fill="#FDFCFE" d="M439.966 385.967L505.379 385.962L505.352 433.492C505.349 442.074 504.969 450.842 505.497 459.404C497.696 459.088 489.818 459.311 482.009 459.313L439.96 459.333L439.966 385.967Z"/>
	<path fill="#BAC5F2" d="M449.415 392.429C450.426 392.37 451.571 392.271 452.564 392.501C454.241 392.889 455.846 394.129 456.709 395.605Q456.87 395.882 457.002 396.173Q457.133 396.465 457.234 396.769Q457.335 397.072 457.403 397.385Q457.472 397.697 457.508 398.015Q457.544 398.333 457.547 398.653Q457.549 398.973 457.519 399.292Q457.489 399.61 457.425 399.924Q457.362 400.238 457.267 400.543C456.538 402.842 454.91 404.025 452.844 405.009C451.739 405.053 450.513 405.163 449.443 404.845C447.845 404.371 446.355 403.213 445.561 401.745C444.726 400.2 444.615 398.456 445.154 396.792C445.883 394.539 447.467 393.509 449.415 392.429Z"/>
	<path fill="#BAC5F2" d="M471.63 392.475C472.66 392.375 473.669 392.281 474.693 392.487C476.398 392.83 477.992 393.827 478.922 395.317C479.874 396.843 480.047 398.559 479.6 400.288C479.015 402.552 477.476 403.724 475.615 404.903C474.459 405.006 473.182 405.199 472.045 404.899C470.39 404.464 468.815 403.306 467.96 401.82Q467.802 401.54 467.674 401.246Q467.546 400.951 467.449 400.645Q467.352 400.339 467.288 400.024Q467.224 399.709 467.192 399.389Q467.161 399.07 467.163 398.748Q467.166 398.427 467.202 398.108Q467.237 397.789 467.306 397.475Q467.375 397.161 467.476 396.856C468.211 394.605 469.671 393.556 471.63 392.475Z"/>
	<path fill="#FDFCFE" d="M429.748 221.714L430.276 222.095C431.081 228.287 430.414 238.092 430.413 244.577L430.406 295.015C408.924 294.632 387.348 295.076 365.856 295.086L365.22 294.71C364.402 291.049 365.035 279.626 365.032 275.097L365.046 221.762L429.748 221.714Z"/>
	<path fill="#FDFCFE" d="M221.459 386.011L286.85 385.967C286.368 410.336 286.619 434.917 286.881 459.291L221.432 459.357C221.791 434.93 221.456 410.444 221.459 386.011Z"/>
	<path fill="#BAC5F2" d="M254.885 393.97C255.816 393.911 256.827 393.888 257.744 394.065C259.566 394.415 261.262 395.751 262.16 397.351Q262.312 397.627 262.436 397.917Q262.559 398.208 262.652 398.509Q262.744 398.811 262.805 399.12Q262.867 399.429 262.896 399.743Q262.924 400.057 262.921 400.373Q262.917 400.688 262.881 401.001Q262.845 401.315 262.777 401.623Q262.709 401.931 262.61 402.23C261.866 404.459 260.295 405.625 258.267 406.577C257.153 406.665 256.014 406.797 254.92 406.498C253.249 406.041 251.754 404.905 250.93 403.375C250.086 401.809 249.993 399.962 250.558 398.287C251.318 396.037 252.921 395.03 254.885 393.97Z"/>
	<path fill="#BAC5F2" d="M232.503 393.97C233.418 393.928 234.382 393.861 235.284 394.038C237.129 394.398 238.844 395.558 239.778 397.2Q239.939 397.483 240.069 397.781Q240.199 398.08 240.297 398.39Q240.395 398.701 240.459 399.02Q240.524 399.34 240.554 399.664Q240.584 399.988 240.579 400.314Q240.575 400.639 240.536 400.962Q240.497 401.286 240.424 401.603Q240.35 401.92 240.244 402.228C239.475 404.493 237.979 405.535 235.983 406.593C234.888 406.688 233.752 406.818 232.678 406.524C231.049 406.078 229.502 404.994 228.665 403.513C227.815 402.008 227.698 400.265 228.165 398.615C228.846 396.206 230.479 395.152 232.503 393.97Z"/>
	<path fill="#FDFCFE" d="M294.851 386.011L360.151 385.964L360.217 459.297L294.831 459.346L294.851 386.011Z"/>
	<path fill="#BAC5F2" d="M338.861 417.172C340.234 417.019 341.916 416.848 343.251 417.264C345.698 418.025 347.696 420.102 348.863 422.329C351.458 427.282 351.524 434.605 349.811 439.844C348.571 443.636 346.562 446.036 342.994 447.807C341.764 447.888 340.321 448.081 339.127 447.727C336.84 447.049 334.881 445.204 333.7 443.175C330.914 438.389 330.551 431.364 332.021 426.108C333.17 422.002 335.169 419.254 338.861 417.172Z"/>
	<path fill="#FDFCFE" d="M340.669 418.155C341.932 418.409 342.891 418.772 343.712 419.819C347.057 424.082 346.562 432.706 345.927 437.778C345.497 441.219 344.782 444.293 341.94 446.521C341.489 446.465 341.037 446.408 340.593 446.308C339.402 446.042 338.684 445.22 338.075 444.202C335.142 439.296 335.516 429.946 336.747 424.498C337.37 421.74 338.176 419.731 340.669 418.155Z"/>
	<path fill="#BAC5F2" d="M320.452 416.774C322.914 416.794 325.234 417.248 327.153 418.904C328.874 420.39 330.067 422.416 330.095 424.73C330.182 431.953 321.713 439.369 317.149 444.356C320.954 444.346 324.841 444.584 328.605 443.956L332.307 440.86C331.366 443.153 330.623 445.524 329.843 447.876L320.336 447.877L311.068 447.853C313.904 444.626 317.281 441.858 320.139 438.637C323.16 435.233 325.812 431.265 325.495 426.499C325.364 424.532 324.651 422.07 323.036 420.828C322.221 420.202 321.293 420.038 320.293 420.19C316.067 420.832 314.391 424.572 312.145 427.672C312.615 425.31 313.034 422.717 314.354 420.648C315.865 418.279 317.816 417.331 320.452 416.774Z"/>
	<path fill="#E1E6FA" d="M44.0053 96.3771C46.1098 97.8354 48.1486 100.36 49.9651 102.197C54.3222 106.602 58.6155 111.088 63.141 115.322C57.7837 119.435 47.7146 130.141 42.9289 135.412C41.0412 134.601 26.8727 119.604 23.8069 116.566L44.0053 96.3771Z"/>
	<path fill="#E1E6FA" d="M71.04 72.446C77.3591 78.7943 83.5259 85.4458 90.1774 91.439C84.4153 96.0005 75.1649 105.982 69.9109 111.598C67.6481 110.395 54.089 95.9625 50.8668 92.7733C57.6414 86.1223 64.6844 79.4924 71.04 72.446Z"/>
	<path fill="#E1E6FA" d="M66.2756 120.339C72.7046 126.633 78.8857 133.175 85.3811 139.404C80.4887 142.915 69.6366 154.519 65.2271 159.37C63.3533 158.756 48.9216 143.445 46.0297 140.606C52.9709 134.143 59.7662 127.236 66.2756 120.339Z"/>
	<path fill="#E1E6FA" d="M730.838 441.226C731.156 441.277 731.391 441.287 731.679 441.427C733.472 442.298 749.497 458.832 749.961 460.012C749.68 461.095 732.203 478.612 730.15 479.975C725.877 475.91 714.96 463.412 710.79 461.339C713.28 460.143 729.933 443.551 730.838 441.226Z"/>
	<path fill="#FDFCFE" d="M10.0565 334.271C15.5755 330.966 22.5129 328.965 28.9241 330.367C34.7702 331.301 37.6335 336.129 42.8532 337.77C45.6575 338.651 48.6404 338.196 51.4937 337.846C63.3687 336.387 69.2708 339.744 76.3162 349.548C77.8136 351.632 79.2441 353.912 80.1306 356.333C82.6218 363.137 83.3261 373.555 92.1894 375.158C94.4637 375.569 96.8664 375.034 99.1165 374.679C102.437 376.179 104.022 378.911 106.835 380.376C108.562 387.772 109.233 395.462 110.154 402.997Q112.268 419.97 114.028 436.983C112.156 441.824 113.186 458.767 113.195 464.566C113.199 466.732 113.415 469.414 112.951 471.516C102.862 471.038 92.6613 469.677 82.6055 468.663C79.9377 468.392 77.1515 468.847 74.4793 469.038C68.3256 469.479 59.9392 469.61 54.4605 466.627C49.8398 464.112 45.4344 459.697 41.9247 455.791C24.7758 436.706 38.9781 430.299 35.6392 419.987C33.457 413.247 23.4663 410.948 17.7275 408.188C7.69987 403.365 1.83767 394.648 2.69522 383.357C3.08125 378.274 4.428 373.065 3.92213 367.965C3.50698 363.78 1.39684 359.709 0 355.757L0 351.211C1.41428 344.828 5.19083 338.597 10.0565 334.271Z"/>
	<path fill="#E1E6FA" d="M10.0565 334.271C15.5755 330.966 22.5129 328.965 28.9241 330.367C34.7702 331.301 37.6335 336.129 42.8532 337.77C45.6575 338.651 48.6404 338.196 51.4937 337.846C63.3687 336.387 69.2708 339.744 76.3162 349.548C77.8136 351.632 79.2441 353.912 80.1306 356.333C82.6218 363.137 83.3261 373.555 92.1894 375.158C94.4637 375.569 96.8664 375.034 99.1165 374.679C102.437 376.179 104.022 378.911 106.835 380.376C108.562 387.772 109.233 395.462 110.154 402.997Q112.268 419.97 114.028 436.983C112.156 441.824 113.186 458.767 113.195 464.566C113.199 466.732 113.415 469.414 112.951 471.516C112.352 468.034 112.706 463.965 112.729 460.431Q112.867 450.593 112.753 440.755C103.956 434.165 95.6913 426.096 87.4456 418.788C74.5174 407.331 61.3695 395.859 49.3859 383.405C40.1727 373.831 32.035 363.358 23.9508 352.837C19.2109 346.668 14.4473 340.711 10.0565 334.271Z"/>
	<path fill="#E1E6FA" d="M30.9066 381.7C33.6541 382.042 37.7749 385.757 39.9514 387.538C47.7374 393.907 89.8104 431.786 90.6009 439.704C85.0373 437.595 78.4442 431.148 73.9501 427.198C67.134 421.207 31.3405 388.443 30.9066 381.7Z"/>
	<path fill="#BAC5F2" d="M45.1666 227.877C51.4418 227.297 59.5577 228.071 64.5876 232.292C66.5758 233.961 67.8881 236.065 69.2194 238.256C73.7336 245.686 78.6453 246.023 86.6393 247.946C85.746 252.91 83.6926 260.808 86.6543 265.356C87.3598 266.44 88.3381 267.222 89.6162 267.494C92.5695 268.121 96.8182 265.797 99.1746 264.129C102.725 271.954 100.692 281.905 108.454 287.492C99.4485 313.795 102.743 342.172 105.345 369.327C106.336 372.607 106.508 376.938 106.835 380.376C104.022 378.911 102.437 376.179 99.1165 374.679C96.8664 375.034 94.4637 375.569 92.1894 375.158C83.3261 373.555 82.6218 363.137 80.1306 356.333C79.2441 353.912 77.8136 351.632 76.3162 349.548C69.2708 339.744 63.3687 336.387 51.4937 337.846C48.6404 338.196 45.6575 338.651 42.8532 337.77C37.6335 336.129 34.7702 331.301 28.9241 330.367C31.1368 328.619 33.9292 324.446 35.2568 321.909C41.8236 309.359 21.995 302.905 17.9507 289.572C13.219 273.972 23.1244 269.638 26.2353 257.272C27.6599 251.61 25.7941 246.125 28.7348 240.673C31.9643 234.686 38.7221 229.801 45.1666 227.877Z"/>
	<path fill="#E1E6FA" d="M45.1666 227.877C51.4418 227.297 59.5577 228.071 64.5876 232.292C66.5758 233.961 67.8881 236.065 69.2194 238.256C73.7336 245.686 78.6453 246.023 86.6393 247.946C85.746 252.91 83.6926 260.808 86.6543 265.356C87.3598 266.44 88.3381 267.222 89.6162 267.494C92.5695 268.121 96.8182 265.797 99.1746 264.129C102.725 271.954 100.692 281.905 108.454 287.492C99.4485 313.795 102.743 342.172 105.345 369.327C105.353 370.272 105.39 370.987 104.964 371.845L104.952 371.845L104.516 370.759L104.323 370.965C99.1557 362.354 94.8352 353.091 90.189 344.181C80.6927 325.97 70.8243 307.539 63.0367 288.532C58.315 277.007 54.5252 265.089 51.0498 253.137C48.7105 245.093 45.999 236.226 45.1666 227.877Z"/>
	<path fill="#BAC5F2" d="M61.4636 264.935C62.1503 265.187 62.6316 265.46 63.1561 265.981C70.7644 273.541 96.8548 330.475 96.9208 340.944C96.5646 340.794 96.5124 340.794 96.1587 340.518C89.1641 335.057 62.563 275.257 61.4636 264.935Z"/>
	<path fill="#E1E6FA" d="M82.6055 468.663C92.6613 469.677 102.862 471.038 112.951 471.516Q112.866 485.365 112.946 499.213C116.026 499.213 119.448 498.924 122.487 499.279C124.258 498.783 126.823 499.16 128.685 499.2C130.731 499.265 132.792 499.283 134.83 499.469L134.831 499.126C141.866 498.618 149.022 498.771 156.065 499.127L156.054 499.43C156.377 514.248 156.016 529.11 156.169 543.937C131.716 543.453 107.131 543.709 82.6712 543.953C82.3551 518.868 82.7128 493.753 82.6055 468.663Z"/>
	<path fill="#4845BC" d="M122.487 499.279C124.258 498.783 126.823 499.16 128.685 499.2C130.731 499.265 132.792 499.283 134.83 499.469C136.675 505.484 140.489 514.64 138.963 520.964Q138.852 521.439 138.693 521.901Q138.535 522.362 138.331 522.805Q138.126 523.248 137.878 523.668Q137.63 524.089 137.34 524.482Q137.051 524.874 136.723 525.236Q136.396 525.598 136.033 525.924Q135.67 526.251 135.277 526.539Q134.883 526.827 134.462 527.074C132.168 528.429 129.612 528.692 127.071 527.983C124.021 527.132 121.006 525.091 119.437 522.295C115.847 515.901 120.703 505.765 122.487 499.279Z"/>
	<path fill="#E1E6FA" d="M708.801 416.871C710.981 418.364 727.303 434.489 727.664 435.924C727.07 437.525 709.645 454.995 707.51 456.195C706.471 453.825 699.242 446.611 696.916 445.265C697.113 443.081 694.168 435.327 693.471 432.654C695.789 430.923 708.286 418.936 708.801 416.871Z"/>
</svg>
