<?xml version="1.0" encoding="utf-8" ?>
<svg xmlns="http://www.w3.org/2000/svg" xmlns:xlink="http://www.w3.org/1999/xlink" width="40" height="40">
	<path fill="#FDFDFC" transform="matrix(0.0550206 0 0 0.0550206 1.52588e-05 0)" d="M23.8069 461.693C23.679 461.709 23.5513 461.727 23.4233 461.742Q22.7311 461.83 22.0335 461.849Q21.3359 461.868 20.6398 461.818Q19.9438 461.767 19.2563 461.648Q18.5687 461.529 17.8964 461.342Q17.2241 461.155 16.5737 460.902Q15.9233 460.649 15.3012 460.332Q14.6792 460.016 14.0916 459.64Q13.5041 459.263 12.9569 458.83C7.47081 454.503 5.87407 446.934 5.23139 440.347C4.06667 428.408 5.77489 416.399 5.96708 404.459C6.32854 382.003 5.99623 359.487 5.99795 337.025L5.98437 191.747Q5.68599 165.911 5.83372 140.074C5.99147 129.749 5.94074 119.593 7.81306 109.386C11.8039 87.6286 21.7526 67.6469 35.849 50.6819Q36.8783 49.4429 37.9376 48.2294Q38.997 47.016 40.0858 45.8289Q41.1746 44.6419 42.2922 43.4819Q43.4098 42.3219 44.5555 41.1896Q45.7012 40.0574 46.8744 38.9536Q48.0475 37.8498 49.2474 36.7752Q50.4473 35.7005 51.6732 34.6556Q52.8991 33.6107 54.1502 32.5961Q55.4014 31.5816 56.677 30.5981Q57.9527 29.6146 59.2521 28.6626Q60.5515 27.7107 61.8739 26.7909Q63.1963 25.8712 64.5408 24.9841Q65.8853 24.0971 67.2512 23.2433Q68.6171 22.3895 70.0035 21.5694Q71.39 20.7494 72.7961 19.9636Q74.2022 19.1779 75.6272 18.4268Q77.0522 17.6758 78.4952 16.9599Q79.9382 16.2441 81.3983 15.5639Q82.8584 14.8836 84.3347 14.2394Q85.8111 13.5952 87.3028 12.9874Q88.7945 12.3796 90.3007 11.8086Q91.8069 11.2376 93.3266 10.7037Q94.8463 10.1698 96.3787 9.67331Q97.9111 9.17686 99.4552 8.71815Q100.999 8.25944 102.554 7.83875Q104.109 7.41806 105.674 7.03564Q107.238 6.65322 108.812 6.3093Q110.386 5.96539 111.967 5.66018Q113.549 5.35497 115.138 5.08866Q116.726 4.82235 118.321 4.59509Q119.916 4.36783 121.515 4.17976Q123.115 3.99169 124.719 3.84292C140.917 2.38289 157.421 3.01225 173.664 3.26703Q194.622 3.48115 215.581 3.39004L396.282 3.39468L536.249 3.39133L570.974 3.31636C584.493 3.19191 597.732 2.73997 611.133 4.95007Q613.337 5.31863 615.527 5.76073Q617.718 6.20283 619.892 6.71798Q622.067 7.23313 624.223 7.82075Q626.379 8.40838 628.514 9.06782Q630.649 9.72726 632.761 10.4578Q634.873 11.1883 636.959 11.9891Q639.045 12.7898 641.103 13.66Q643.162 14.5301 645.19 15.4686Q647.218 16.4072 649.213 17.413Q651.209 18.4189 653.169 19.4909Q655.13 20.563 657.054 21.7001Q658.977 22.8372 660.862 24.038Q662.746 25.2388 664.59 26.502Q666.433 27.7652 668.233 29.0894Q670.033 30.4136 671.788 31.7972Q673.543 33.1809 675.25 34.6225C699.396 54.8927 716.761 84.9611 719.501 116.662C720.804 131.739 720.106 146.81 719.936 161.912C719.763 177.267 719.919 192.643 719.926 208L719.928 395.103L719.931 537.562L719.999 574.481C720.08 587.518 720.488 600.741 718.447 613.658Q718.105 615.7 717.694 617.729Q717.284 619.758 716.805 621.773Q716.326 623.787 715.78 625.784Q715.233 627.781 714.62 629.758Q714.007 631.736 713.327 633.691Q712.647 635.647 711.902 637.579Q711.157 639.51 710.347 641.416Q709.538 643.321 708.664 645.198Q707.791 647.075 706.854 648.922Q705.918 650.768 704.92 652.582Q703.922 654.396 702.864 656.176Q701.805 657.955 700.688 659.698Q699.57 661.44 698.394 663.144Q697.218 664.849 695.985 666.512Q694.753 668.175 693.465 669.796Q692.177 671.417 690.835 672.994Q689.757 674.278 688.648 675.536Q687.538 676.793 686.398 678.023Q685.258 679.252 684.088 680.453Q682.918 681.654 681.719 682.826Q680.52 683.998 679.292 685.14Q678.064 686.282 676.809 687.393Q675.553 688.504 674.27 689.584Q672.988 690.664 671.679 691.712Q670.37 692.76 669.036 693.776Q667.701 694.791 666.342 695.773Q664.984 696.756 663.601 697.704Q662.218 698.652 660.812 699.567Q659.406 700.481 657.979 701.36Q656.551 702.239 655.102 703.082Q653.653 703.926 652.183 704.733Q650.714 705.541 649.225 706.312Q647.736 707.083 646.228 707.817Q644.721 708.552 643.196 709.248Q641.671 709.945 640.129 710.604Q638.587 711.263 637.029 711.884Q635.472 712.504 633.899 713.086Q632.327 713.668 630.74 714.212Q629.154 714.755 627.555 715.258Q625.956 715.762 624.344 716.227Q622.733 716.691 621.111 717.115Q619.489 717.54 617.857 717.924Q616.225 718.308 614.583 718.652Q612.942 718.996 611.293 719.299Q609.644 719.602 607.988 719.865Q606.332 720.127 604.67 720.349Q603.008 720.57 601.341 720.751Q599.674 720.932 598.003 721.071C581.759 722.42 565.601 721.872 549.335 721.706L503.072 721.675L319.638 721.672L188.328 721.669L155.154 721.717C141.853 721.799 128.185 722.142 115.017 720.046Q112.883 719.694 110.762 719.27Q108.641 718.846 106.536 718.35Q104.431 717.855 102.343 717.289Q100.256 716.722 98.1891 716.086Q96.122 715.45 94.0776 714.744Q92.0332 714.038 90.0139 713.263Q87.9945 712.489 86.0024 711.647Q84.0103 710.805 82.0479 709.896Q80.0854 708.987 78.1547 708.012Q76.224 707.037 74.3273 705.998Q72.4307 704.958 70.5702 703.855Q68.7097 702.752 66.8876 701.587Q65.0654 700.422 63.2836 699.196Q61.5018 697.97 59.7624 696.685Q58.0231 695.4 56.3281 694.056Q54.6331 692.713 52.9845 691.313C24.9642 667.53 9.07571 636.233 6.12928 599.676C4.27826 576.71 4.7517 553.255 5.25107 530.226C5.44024 521.502 4.96565 511.701 6.58373 503.154C7.05759 500.651 8.00579 498.474 9.64348 496.501C11.7765 493.931 14.9128 491.994 18.2928 491.741C19.7057 491.636 22.4384 492.511 23.4387 491.824L23.6348 490.863C24.3909 481.156 22.8305 471.442 23.8069 461.693Z"/>
	<path fill="#26333E" transform="matrix(0.0550206 0 0 0.0550206 1.52588e-05 0)" d="M23.8069 461.693C23.679 461.709 23.5513 461.727 23.4233 461.742Q22.7311 461.83 22.0335 461.849Q21.3359 461.868 20.6398 461.818Q19.9438 461.767 19.2563 461.648Q18.5687 461.529 17.8964 461.342Q17.2241 461.155 16.5737 460.902Q15.9233 460.649 15.3012 460.332Q14.6792 460.016 14.0916 459.64Q13.5041 459.263 12.9569 458.83C7.47081 454.503 5.87407 446.934 5.23139 440.347C4.06667 428.408 5.77489 416.399 5.96708 404.459C6.32854 382.003 5.99623 359.487 5.99795 337.025L5.98437 191.747Q5.68599 165.911 5.83372 140.074C5.99147 129.749 5.94074 119.593 7.81306 109.386C11.8039 87.6286 21.7526 67.6469 35.849 50.6819Q36.8783 49.4429 37.9376 48.2294Q38.997 47.016 40.0858 45.8289Q41.1746 44.6419 42.2922 43.4819Q43.4098 42.3219 44.5555 41.1896Q45.7012 40.0574 46.8744 38.9536Q48.0475 37.8498 49.2474 36.7752Q50.4473 35.7005 51.6732 34.6556Q52.8991 33.6107 54.1502 32.5961Q55.4014 31.5816 56.677 30.5981Q57.9527 29.6146 59.2521 28.6626Q60.5515 27.7107 61.8739 26.7909Q63.1963 25.8712 64.5408 24.9841Q65.8853 24.0971 67.2512 23.2433Q68.6171 22.3895 70.0035 21.5694Q71.39 20.7494 72.7961 19.9636Q74.2022 19.1779 75.6272 18.4268Q77.0522 17.6758 78.4952 16.9599Q79.9382 16.2441 81.3983 15.5639Q82.8584 14.8836 84.3347 14.2394Q85.8111 13.5952 87.3028 12.9874Q88.7945 12.3796 90.3007 11.8086Q91.8069 11.2376 93.3266 10.7037Q94.8463 10.1698 96.3787 9.67331Q97.9111 9.17686 99.4552 8.71815Q100.999 8.25944 102.554 7.83875Q104.109 7.41806 105.674 7.03564Q107.238 6.65322 108.812 6.3093Q110.386 5.96539 111.967 5.66018Q113.549 5.35497 115.138 5.08866Q116.726 4.82235 118.321 4.59509Q119.916 4.36783 121.515 4.17976Q123.115 3.99169 124.719 3.84292C140.917 2.38289 157.421 3.01225 173.664 3.26703Q194.622 3.48115 215.581 3.39004L396.282 3.39468L536.249 3.39133L570.974 3.31636C584.493 3.19191 597.732 2.73997 611.133 4.95007Q613.337 5.31863 615.527 5.76073Q617.718 6.20283 619.892 6.71798Q622.067 7.23313 624.223 7.82075Q626.379 8.40838 628.514 9.06782Q630.649 9.72726 632.761 10.4578Q634.873 11.1883 636.959 11.9891Q639.045 12.7898 641.103 13.66Q643.162 14.5301 645.19 15.4686Q647.218 16.4072 649.213 17.413Q651.209 18.4189 653.169 19.4909Q655.13 20.563 657.054 21.7001Q658.977 22.8372 660.862 24.038Q662.746 25.2388 664.59 26.502Q666.433 27.7652 668.233 29.0894Q670.033 30.4136 671.788 31.7972Q673.543 33.1809 675.25 34.6225C699.396 54.8927 716.761 84.9611 719.501 116.662C720.804 131.739 720.106 146.81 719.936 161.912C719.763 177.267 719.919 192.643 719.926 208L719.928 395.103L719.931 537.562L719.999 574.481C720.08 587.518 720.488 600.741 718.447 613.658Q718.105 615.7 717.694 617.729Q717.284 619.758 716.805 621.773Q716.326 623.787 715.78 625.784Q715.233 627.781 714.62 629.758Q714.007 631.736 713.327 633.691Q712.647 635.647 711.902 637.579Q711.157 639.51 710.347 641.416Q709.538 643.321 708.664 645.198Q707.791 647.075 706.854 648.922Q705.918 650.768 704.92 652.582Q703.922 654.396 702.864 656.176Q701.805 657.955 700.688 659.698Q699.57 661.44 698.394 663.144Q697.218 664.849 695.985 666.512Q694.753 668.175 693.465 669.796Q692.177 671.417 690.835 672.994Q689.757 674.278 688.648 675.536Q687.538 676.793 686.398 678.023Q685.258 679.252 684.088 680.453Q682.918 681.654 681.719 682.826Q680.52 683.998 679.292 685.14Q678.064 686.282 676.809 687.393Q675.553 688.504 674.27 689.584Q672.988 690.664 671.679 691.712Q670.37 692.76 669.036 693.776Q667.701 694.791 666.342 695.773Q664.984 696.756 663.601 697.704Q662.218 698.652 660.812 699.567Q659.406 700.481 657.979 701.36Q656.551 702.239 655.102 703.082Q653.653 703.926 652.183 704.733Q650.714 705.541 649.225 706.312Q647.736 707.083 646.228 707.817Q644.721 708.552 643.196 709.248Q641.671 709.945 640.129 710.604Q638.587 711.263 637.029 711.884Q635.472 712.504 633.899 713.086Q632.327 713.668 630.74 714.212Q629.154 714.755 627.555 715.258Q625.956 715.762 624.344 716.227Q622.733 716.691 621.111 717.115Q619.489 717.54 617.857 717.924Q616.225 718.308 614.583 718.652Q612.942 718.996 611.293 719.299Q609.644 719.602 607.988 719.865Q606.332 720.127 604.67 720.349Q603.008 720.57 601.341 720.751Q599.674 720.932 598.003 721.071C581.759 722.42 565.601 721.872 549.335 721.706L503.072 721.675L319.638 721.672L188.328 721.669L155.154 721.717C141.853 721.799 128.185 722.142 115.017 720.046Q112.883 719.694 110.762 719.27Q108.641 718.846 106.536 718.35Q104.431 717.855 102.343 717.289Q100.256 716.722 98.1891 716.086Q96.122 715.45 94.0776 714.744Q92.0332 714.038 90.0139 713.263Q87.9945 712.489 86.0024 711.647Q84.0103 710.805 82.0479 709.896Q80.0854 708.987 78.1547 708.012Q76.224 707.037 74.3273 705.998Q72.4307 704.958 70.5702 703.855Q68.7097 702.752 66.8876 701.587Q65.0654 700.422 63.2836 699.196Q61.5018 697.97 59.7624 696.685Q58.0231 695.4 56.3281 694.056Q54.6331 692.713 52.9845 691.313C24.9642 667.53 9.07571 636.233 6.12928 599.676C4.27826 576.71 4.7517 553.255 5.25107 530.226C5.44024 521.502 4.96565 511.701 6.58373 503.154C7.05759 500.651 8.00579 498.474 9.64348 496.501C11.7765 493.931 14.9128 491.994 18.2928 491.741C19.7057 491.636 22.4384 492.511 23.4387 491.824L23.6348 490.863C23.8077 492.125 23.8404 492.243 24.8518 492.97C29.4031 496.24 33.0093 499.29 34.1472 505.179C35.4672 512.01 34.0755 520.024 34.0382 526.985L33.9761 568.944C33.955 582.84 33.3377 596.573 36.1585 610.28C39.8326 611.592 44.6098 617.418 47.9012 620.106Q51.9398 623.381 56.291 626.228C72.6088 636.868 91.7141 640.892 110.91 641.977C118.125 642.385 125.351 642.306 132.588 642.729C142.611 643.314 152.842 642.923 162.884 642.921L216.817 642.916L384.251 642.915L492.334 642.918L523.597 642.902C534.78 642.876 546.179 642.961 557.242 641.166C575.512 638.203 592.9 629.464 606.659 617.185C621.552 603.894 632.887 585.837 636.868 566.15C639.882 551.245 638.932 536.515 639.138 521.441Q639.574 477.913 639.314 434.384L639.301 172.296L639.289 87.819L639.28 60.6598C639.28 55.4115 639.085 50.0612 639.407 44.8245L639.435 44.4089C625.993 37.0637 612.371 33.2062 597.171 31.8947C587.2 31.0344 577.216 31.1702 567.219 31.1719L530.463 31.1756L411.826 31.1788L236.465 31.1785L174.706 31.1755C152.13 31.1675 128.527 29.4337 106.594 35.866C80.7142 43.4554 58.7363 62.2151 45.9131 85.7849Q43.7589 89.7141 41.9801 93.8269Q40.2014 97.9397 38.8135 102.2Q37.4256 106.461 36.4406 110.832Q35.4557 115.204 34.8823 119.648C33.365 132.192 33.9376 144.843 33.9882 157.441L34.0131 208.672L34.022 388.557L34.0564 426.965C34.0921 434.041 35.3724 442.442 33.6957 449.309C32.1577 455.608 28.2409 457.734 23.8069 461.693Z"/>
	<path fill="#D8DBDB" transform="matrix(0.0550206 0 0 0.0550206 1.52588e-05 0)" d="M639.435 44.4089C663.204 58.3539 679.976 75.5077 687.111 102.947C693.234 126.495 692.179 152.916 692.186 177.144L692.194 233.436L692.198 416.767L692.194 530.93L692.198 564.184C692.211 574.989 692.303 585.764 691.3 596.536C689.68 613.948 685.053 631.661 676.052 646.759C662.373 669.703 639.645 683.945 614.142 690.339C593.406 695.539 571.361 694.122 550.169 694.023L497.91 694.01L301.76 694.014L188.588 694.019L153.393 694.022C144.984 694.019 136.518 694.206 128.135 693.438Q125.215 693.183 122.315 692.76Q119.414 692.338 116.543 691.751Q113.671 691.163 110.838 690.413Q108.005 689.662 105.219 688.75Q102.434 687.838 99.7048 686.769Q96.9759 685.699 94.3127 684.475Q91.6496 683.251 89.0608 681.877Q86.472 680.502 83.9661 678.982C61.5342 665.445 44.0824 643.636 37.7342 618.018Q36.786 614.182 36.1585 610.28C39.8326 611.592 44.6098 617.418 47.9012 620.106Q51.9398 623.381 56.291 626.228C72.6088 636.868 91.7141 640.892 110.91 641.977C118.125 642.385 125.351 642.306 132.588 642.729C142.611 643.314 152.842 642.923 162.884 642.921L216.817 642.916L384.251 642.915L492.334 642.918L523.597 642.902C534.78 642.876 546.179 642.961 557.242 641.166C575.512 638.203 592.9 629.464 606.659 617.185C621.552 603.894 632.887 585.837 636.868 566.15C639.882 551.245 638.932 536.515 639.138 521.441Q639.574 477.913 639.314 434.384L639.301 172.296L639.289 87.819L639.28 60.6598C639.28 55.4115 639.085 50.0612 639.407 44.8245L639.435 44.4089Z"/>
	<path fill="#26333E" transform="matrix(0.0550206 0 0 0.0550206 1.52588e-05 0)" d="M525.397 399.899Q526.715 399.849 528.033 399.82C550.062 399.343 574.272 397.632 591.389 414.233C613.494 435.671 608.641 479.415 607.571 507.561C607.265 515.609 607.611 523.712 607.705 531.763C607.956 553.255 608.401 580.805 592.212 597.165C586.324 603.115 578.384 606.901 570.295 608.787C557.868 611.686 544.019 610.664 531.3 610.687L482.33 610.758C459.758 610.68 433.285 614.402 415.464 597.251C402.002 584.295 400.009 564.276 399.748 546.576C399.496 529.511 399.705 512.413 399.704 495.345C399.703 476.305 398.213 456.229 402.89 437.624C405.036 429.084 409.055 420.703 415.276 414.378C421.636 407.911 429.872 403.992 438.637 401.949C451.067 399.052 464.363 399.955 477.058 399.96Q501.228 400.057 525.397 399.899Z"/>
	<path fill="#66B8F3" transform="matrix(0.0550206 0 0 0.0550206 1.52588e-05 0)" d="M428.043 456.586C427.936 452.591 428.217 448.402 429.218 444.523C430.573 439.271 433.452 434.758 438.279 432.035C442.179 429.833 446.777 428.936 451.18 428.442C466.417 426.732 484.761 427.913 500.306 427.748C519.791 427.542 540.439 423.512 559.558 428.83C566.301 430.706 572.223 433.877 575.737 440.163C582.933 452.888 579.05 492.218 579.165 508.087C579.298 526.353 583.143 546.15 578.104 564.062C576.332 570.359 572.971 576.657 567.05 579.921C564.407 581.377 561.637 581.991 558.668 582.274C545.542 583.528 450.16 583.991 441.284 581.078C436.487 579.504 432.341 574.414 430.321 569.954Q429.798 568.789 429.392 567.579Q428.987 566.368 428.702 565.124Q428.418 563.879 428.257 562.613Q428.097 561.346 428.062 560.07C427.732 535.669 428.04 511.238 428.027 486.833C428.021 477.034 426.259 466.204 428.043 456.586Z"/>
	<path fill="#4F9CD7" transform="matrix(0.0550206 0 0 0.0550206 1.52588e-05 0)" d="M565.382 436.354C567.372 437.269 573.351 440.746 575.423 440.285C575.533 440.26 575.632 440.204 575.737 440.163C582.933 452.888 579.05 492.218 579.165 508.087C579.298 526.353 583.143 546.15 578.104 564.062C576.332 570.359 572.971 576.657 567.05 579.921C564.407 581.377 561.637 581.991 558.668 582.274C545.542 583.528 450.16 583.991 441.284 581.078C436.487 579.504 432.341 574.414 430.321 569.954Q429.798 568.789 429.392 567.579Q428.987 566.368 428.702 565.124Q428.418 563.879 428.257 562.613Q428.097 561.346 428.062 560.07C444.081 559.438 460.715 559.511 476.743 559.878C492.846 560.246 509.575 561.363 525.557 558.971C537.171 557.232 548.473 553.043 555.62 543.256C559.981 537.284 562.184 529.979 563.472 522.781C564.946 514.545 565.096 506.352 565.345 498.026C565.715 485.601 565.684 473.197 565.718 460.769C565.738 453.44 566.498 443.285 565.382 436.354Z"/>
	<defs>
		<linearGradient id="gradient_0" gradientUnits="userSpaceOnUse" x1="512.31805" y1="412.44302" x2="490.08231" y2="474.53873">
			<stop offset="0" stop-color="#E8ECFF"/>
			<stop offset="1" stop-color="#FFFFFE"/>
		</linearGradient>
	</defs>
	<path fill="url(#gradient_0)" transform="matrix(0.0550206 0 0 0.0550206 1.52588e-05 0)" d="M428.043 456.586C427.936 452.591 428.217 448.402 429.218 444.523C430.573 439.271 433.452 434.758 438.279 432.035C442.179 429.833 446.777 428.936 451.18 428.442C466.417 426.732 484.761 427.913 500.306 427.748C519.791 427.542 540.439 423.512 559.558 428.83C566.301 430.706 572.223 433.877 575.737 440.163C575.632 440.204 575.533 440.26 575.423 440.285C573.351 440.746 567.372 437.269 565.382 436.354C553.076 433.609 542.801 434.376 530.363 434.449L499.513 434.465L471.641 434.468C465.264 434.47 458.8 434.247 452.449 434.877C448.151 435.303 443.251 436.042 439.534 438.362C434.15 441.722 432.18 446.763 429.999 452.373C429.444 453.799 429.004 455.383 428.043 456.586Z"/>
	<path fill="#26333E" transform="matrix(0.0550206 0 0 0.0550206 1.52588e-05 0)" d="M451.013 121.216C474.046 120.855 497.176 121.332 520.22 121.334Q530.169 121.363 540.117 121.277C548.415 121.175 556.859 120.738 565.047 122.358C574.564 124.241 583.572 128.115 590.584 134.952C605.804 149.792 607.408 172.941 607.543 192.999L607.577 242.397C607.589 259.335 608.738 277.476 604.655 294.042C602.601 302.374 599.013 310.276 592.888 316.409C584.01 325.299 569.822 330.458 557.377 330.507L486.268 330.422C471.698 330.428 455.364 331.622 441.062 328.777C432.309 327.036 423.647 323.611 416.907 317.626C404.135 306.283 400.885 289.056 399.994 272.774C399.121 256.838 399.738 240.575 399.728 224.61L399.712 198.198C399.702 186.456 399.61 174.881 402.046 163.32C404.041 153.859 407.683 144.625 414.241 137.38C423.475 127.178 437.449 121.844 451.013 121.216Z"/>
	<path fill="#F96C58" transform="matrix(0.0550206 0 0 0.0550206 1.52588e-05 0)" d="M428.134 181.01C428.116 173.061 429.646 163.46 435.081 157.277C438.296 153.62 442.539 151.629 447.201 150.563C455.588 148.645 465.521 149.193 474.116 149.136C494.17 149.003 514.295 149.969 534.321 148.941C547.037 148.288 562.097 147.292 572.243 156.445C575.986 160.252 577.758 165.383 578.622 170.561C580.296 180.588 579.278 195.487 579.262 206.131L579.25 268.086C579.171 276.592 579.574 290.1 573.166 296.435C569.923 299.641 565.382 301.294 560.96 302.083C548.355 304.33 530.822 303.27 517.663 303.247C498.99 303.213 480.228 303.556 461.566 303.112C452.558 302.898 441.655 302.316 434.898 295.473C429.111 289.612 428.05 280.839 428.011 272.996C427.726 266.465 427.896 259.881 427.89 253.341L427.772 224.792C427.749 210.311 427.122 195.437 428.134 181.01Z"/>
	<path fill="#EE4D39" transform="matrix(0.0550206 0 0 0.0550206 1.52588e-05 0)" d="M572.243 156.445C575.986 160.252 577.758 165.383 578.622 170.561C580.296 180.588 579.278 195.487 579.262 206.131L579.25 268.086C579.171 276.592 579.574 290.1 573.166 296.435C569.923 299.641 565.382 301.294 560.96 302.083C548.355 304.33 530.822 303.27 517.663 303.247C498.99 303.213 480.228 303.556 461.566 303.112C452.558 302.898 441.655 302.316 434.898 295.473C429.111 289.612 428.05 280.839 428.011 272.996L477.432 272.968C494.702 272.982 526.354 274.69 541.867 268.957C547.897 266.729 552.467 262.984 555.516 257.284C563.177 242.965 561.977 217.835 561.974 201.675C561.972 193.085 562.091 184.47 561.926 175.881C561.817 170.239 560.239 161.977 562.696 156.811C562.747 156.705 562.801 156.6 562.853 156.494C565.678 156.666 569.556 157.466 572.243 156.445Z"/>
	<path fill="#FE9D9C" transform="matrix(0.0550206 0 0 0.0550206 1.52588e-05 0)" d="M428.134 181.01C428.116 173.061 429.646 163.46 435.081 157.277C438.296 153.62 442.539 151.629 447.201 150.563C455.588 148.645 465.521 149.193 474.116 149.136C494.17 149.003 514.295 149.969 534.321 148.941C547.037 148.288 562.097 147.292 572.243 156.445C569.556 157.466 565.678 156.666 562.853 156.494L491.786 156.443L470.377 156.423C464.99 156.428 459.418 156.15 454.102 157.122C448.549 158.138 443.773 160.084 439.724 164.118C436.606 167.224 429.983 180.337 428.134 181.01Z"/>
	<path fill="#26333E" transform="matrix(0.0550206 0 0 0.0550206 1.52588e-05 0)" d="M213.332 121.498Q214.326 121.402 215.324 121.349Q216.322 121.296 217.321 121.287Q218.32 121.277 219.318 121.311Q220.317 121.345 221.313 121.422Q222.309 121.499 223.301 121.619Q224.293 121.739 225.279 121.901Q226.264 122.064 227.242 122.27Q228.22 122.475 229.188 122.722Q230.156 122.97 231.112 123.259Q232.069 123.548 233.012 123.878Q233.954 124.209 234.882 124.579Q235.81 124.95 236.721 125.361Q237.632 125.771 238.524 126.221Q239.416 126.671 240.288 127.158Q241.16 127.646 242.01 128.171Q242.86 128.697 243.686 129.258C256.112 137.623 265.149 149.642 275.58 160.161L298.081 182.622C305.141 189.682 312.266 196.654 318.204 204.716C322.847 211.02 326.973 218.122 328.385 225.928C330.122 235.526 327.006 244.122 321.535 251.944C311.785 265.883 297.64 276.883 285.713 288.942L260.438 314.812C254.612 320.765 248.809 327.087 242.219 332.207C236.994 336.266 230.985 339.541 224.429 340.725C216.027 341.625 207.027 340.807 199.674 336.276C191.806 331.428 185.311 323.871 178.849 317.33L159.05 297.368L138.347 276.585C131.801 270.034 125.115 263.584 119.505 256.185C115.325 250.671 111.798 244.733 110.218 237.926C107.919 228.023 110.668 218.512 115.937 210.043C121.073 201.788 128.503 195.239 135.32 188.415L156.465 167.208L177.196 146.36C182.913 140.613 188.544 134.518 195.097 129.71C200.697 125.602 206.604 123.1 213.332 121.498Z"/>
	<path fill="#FDFDFC" transform="matrix(0.0550206 0 0 0.0550206 1.52588e-05 0)" d="M202.085 300.553C188.213 287.691 174.353 274.671 161.011 261.26C155.197 255.416 137.626 238.996 137.86 230.774C137.96 227.275 139.729 223.407 141.874 220.656C147.726 213.15 155.795 207.089 162.544 200.371C177.062 185.921 191.207 170.965 206.021 156.828C209.954 153.074 214.639 149.464 220.417 149.755C224.199 149.946 227.903 152.086 230.836 154.374C237.482 159.56 242.58 166.561 248.443 172.563C261.966 186.407 275.919 199.855 288.973 214.153C293.408 218.804 299.039 224.79 298.95 231.674C298.907 235.046 297.368 237.913 295.315 240.49C291.059 245.834 285.558 250.354 280.711 255.162L252.052 283.839C249.412 286.507 246.688 289.141 244.228 291.975C239.64 297.26 235.326 302.988 230.208 307.776C227.419 310.385 224.169 312.541 220.204 312.434C212.944 312.237 206.773 305.361 202.085 300.553Z"/>
	<path fill="#D8DBDB" transform="matrix(0.0550206 0 0 0.0550206 1.52588e-05 0)" d="M288.973 214.153C293.408 218.804 299.039 224.79 298.95 231.674C298.907 235.046 297.368 237.913 295.315 240.49C291.059 245.834 285.558 250.354 280.711 255.162L252.052 283.839C249.412 286.507 246.688 289.141 244.228 291.975C239.64 297.26 235.326 302.988 230.208 307.776C227.419 310.385 224.169 312.541 220.204 312.434C212.944 312.237 206.773 305.361 202.085 300.553C216.064 290.887 231.908 271.245 244.237 258.634C258.94 243.594 274.564 229.51 288.973 214.153Z"/>
	<path fill="#26333E" transform="matrix(0.0550206 0 0 0.0550206 1.52588e-05 0)" d="M294.55 461.675C303.257 461.274 315.894 459.792 323.2 465.371C325.925 467.452 327.512 470.409 327.854 473.808C328.265 477.883 326.85 481.899 324.168 484.965C322.15 487.272 319.243 489.07 316.195 489.572C311.476 490.348 306.139 489.909 301.342 489.892L272.881 489.759L193.02 489.768C176.802 489.76 160.402 489.249 144.214 490.151C135.896 490.328 121.868 491.87 115.206 486.279Q114.709 485.854 114.256 485.382Q113.804 484.91 113.4 484.395Q112.997 483.88 112.648 483.327Q112.298 482.774 112.006 482.189Q111.713 481.605 111.48 480.993Q111.248 480.382 111.077 479.751Q110.907 479.119 110.8 478.474Q110.694 477.829 110.652 477.176C110.39 473.379 111.812 469.643 114.352 466.838C116.489 464.478 119.439 462.745 122.601 462.272C127.985 461.467 133.85 461.906 139.305 461.905L169.458 461.91L248.543 461.931C263.843 461.932 279.264 462.315 294.55 461.675Z"/>
</svg>
